<svg xmlns="http://www.w3.org/2000/svg" viewBox="0 0 500.98 516.54"><defs><style>.cls-1,.cls-3,.cls-4{fill:#fff;}.cls-2,.cls-6{fill:none;}.cls-2,.cls-3,.cls-4,.cls-6{stroke:#ffab11;}.cls-2,.cls-3,.cls-4{stroke-linecap:round;stroke-linejoin:round;}.cls-2,.cls-4{stroke-width:8px;}.cls-3{stroke-width:5px;}.cls-5{fill:#ffab11;}.cls-6{stroke-miterlimit:10;stroke-width:2px;}</style></defs><title>Bebidas y Lacteos</title><g id="Layer_2" data-name="Layer 2"><g id="Layer_1-2" data-name="Layer 1"><path class="cls-1" d="M474.62,369.86a24.16,24.16,0,0,0-13.36-1.15,26,26,0,0,1-5.43.2c-.83,0-1.67,0-2.5-.05q-11.32,0-22.65,0a12.76,12.76,0,0,0-.15-2.63c-.82-4.58.5-8.72,4.41-13.84,7.62-10,15.25-20.18,22.62-30.06l6.12-8.19c1.27-1.7,4.25-5.68.32-9.33l-1-.92c-2.5-2.41-5.61-5.4-10.38-5.56h-.12a4.8,4.8,0,0,0-3.42,1.86l-.63.66A18.76,18.76,0,0,0,446,303.8q-5.71,8.87-11.38,17.75-6.52,10.2-13.07,20.37c-2.78,4.31-6.4,8.84-12.15,9.7a22.63,22.63,0,0,0-10.1,4.08,18.31,18.31,0,0,0-13.79-4.32c-3.88-27.89-2-55.73,5.53-84.37,3.43-13,7-26.46,5.08-42.31-2.65-22.27-9.05-39.12-20.14-53a34.32,34.32,0,0,1-5.81-10.34,31.91,31.91,0,0,1-1.37-14.62,39.42,39.42,0,0,0,.12-6.2,42.65,42.65,0,0,1,0-4.51c.32-4.32-.48-7.45-2.47-9.57-1.81-1.94-4.52-2.92-8.06-2.92h-.12c-11.8.08-23.79.07-35.4.05H305.09c-2.47,0-6,.29-8.38,2.78-1.63,1.73-2.37,4.17-2.19,7.25.2,3.42.08,7,0,10.42-.2,6-.4,12.26,1,18.5a12,12,0,0,0-3.74,3.12A115.53,115.53,0,0,0,281.5,180.3a17,17,0,0,0-1.08-5.88,4.09,4.09,0,0,1,.38-3.68,73.19,73.19,0,0,0,8.49-35.39,88,88,0,0,0-10.52-40.19c-9.9-18.88-24.76-32.85-43.33-43-1.72-.94-1.72-.93-1.45-3.05,2.94-1.06,3.39-1.69,3.39-4.81,0-7.78,0-15.57,0-23.35a15.7,15.7,0,0,0-.44-3.88,5.27,5.27,0,0,0-5.57-4.26q-18.6,0-37.2,0a5.32,5.32,0,0,0-5.63,4.46,19.38,19.38,0,0,0-.43,4.3c0,7.1,0,14.19,0,21.29,0,.89,0,1.79,0,2.69a3.35,3.35,0,0,0,2.28,3.14,12.69,12.69,0,0,0,1.3.4v2.17c-.47.27-.87.53-1.3.76a103.3,103.3,0,0,0-13.94,8.84c-17.52,13.18-30.09,29.9-36.49,51a79.7,79.7,0,0,0-2.29,39,73.52,73.52,0,0,0,7.25,20.36c.82,1.57-1.82,7.43-.11,20,1.61,11.8,2.08,23.74,3.17,35.61a6.35,6.35,0,0,1-1.05,4.27,14.52,14.52,0,0,0-2.61,6.19c-1,8.76-2.19,17.49-3.27,26.25a30.33,30.33,0,0,0-.37,5.74c.36,5,.92,10,1.43,15a8,8,0,0,1,0,1.23H103.31l-3.9-32.15a2.83,2.83,0,0,0-1.31-2.06L57.84,226a2.83,2.83,0,1,0-3,4.8L94,255.32l3.65,30.12H72.54a2.83,2.83,0,0,0-2.83,3l2.5,39.2,3.18,49.76a38.92,38.92,0,0,0-1.09,16.76h0v0c-1.25-.15-2.5-.27-3.77-.33-1-16.81-16.42-24.29-24.87-25.91a2.83,2.83,0,0,0-1.08,5.56c.82.16,19,4,20.27,20.36A55,55,0,1,0,98.09,494.64h60.77a2.83,2.83,0,0,0,2.83-2.65l.37-5.79a21.8,21.8,0,0,0,13.92-.57c2.57-1,5.08-2.11,7.56-3.3,2.85-1.38,5.62-2.91,8.63-4.47,1.09,2.09,2.16,4,3.11,6a8.21,8.21,0,0,0,7,4.79,57.73,57.73,0,0,0,6.79.43c4.68,0,9.36-.15,14-.43a8.1,8.1,0,0,0,7.26-5c.9-1.92,2-3.78,3-5.81.73.4,1.38.77,2,1.1,4.46,2.15,8.89,4.36,13.39,6.42a22.91,22.91,0,0,0,23.29-3.71,21.51,21.51,0,0,0,15.25,7.18c13.43.14,27.36.21,42.72.21,11.17,0,23.13,0,36.18-.11,5.23,5.27,10.6,7.74,16.84,7.74h.09q12-.05,24,0h16.15c4.28,0,9.14,0,13.77-3,5.93-3.93,9-8.51,9.56-14.4,1.56-15.61,6.38-65.68,5.18-75.63,0-.09.06-.18.09-.28a48.38,48.38,0,0,0,1.6-12.95,17.26,17.26,0,0,1,.67-5.15c3.26,2.66,5.72,7,8.12,11.23,3.51,6.2,6.82,12.06,12.78,12.08h.14a11.38,11.38,0,0,0,8.61-4.14,21.17,21.17,0,0,0,4.42-12.72C488.54,380.85,484.09,373.73,474.62,369.86Z"/><path class="cls-1" d="M67.75,516.54A67.76,67.76,0,0,1,42.17,386l-.1,0A15.58,15.58,0,0,1,48,355.42a46.86,46.86,0,0,1,13.52,4.91L57,289.26a15.58,15.58,0,0,1,15.55-16.57H83.22L82,262.89l-34-21.24A15.58,15.58,0,1,1,64.6,215.24l40.27,25.19a15.51,15.51,0,0,1,7.2,11.33l2.54,20.94h13.54q-.11-1.29-.2-2.59a38.48,38.48,0,0,1,.37-7.68l.06-.5c.41-3.38.84-6.72,1.27-10.07.67-5.29,1.37-10.76,2-16.11a25,25,0,0,1,3.45-9.86c-.32-3.64-.58-7.25-.84-10.76-.57-7.72-1.1-15-2.09-22.27A69.13,69.13,0,0,1,132,174a86.08,86.08,0,0,1-6.9-20.71,92.73,92.73,0,0,1,2.6-45.14c6.94-22.91,20.74-42.27,41-57.52q3.21-2.42,6.58-4.6c-.05-1,0-1.88,0-2.6V37.5c0-5.35,0-10.71,0-16.06a31.74,31.74,0,0,1,.77-7.13A18,18,0,0,1,194.15,0C206.48,0,219,0,231.38,0a18.08,18.08,0,0,1,17.87,13.76,28,28,0,0,1,.87,7.06c0,7,0,13.93,0,20.89v2.55q0,.89-.06,1.74c17.42,11.27,30.83,25.78,40,43.23a106.76,106.76,0,0,1,8.71,22.2,30.84,30.84,0,0,1,6.32-.62h17.81c10.9,0,23.25,0,35.3-.05h.2c9,0,14.41,3.79,17.38,7,4.48,4.8,6.46,11.27,5.86,19.22-.06.74,0,1.9,0,3.13a51,51,0,0,1-.21,8.19,19.24,19.24,0,0,0,.77,8.91,21.86,21.86,0,0,0,3.73,6.55c12.63,15.84,19.88,34.74,22.83,59.47,2.18,18.25-1.85,33.56-5.41,47.05-6.3,23.86-8.38,46.8-6.32,69.84q1.34.44,2.64,1a36.15,36.15,0,0,1,7.84-2.08c.14-.06,1.12-.58,3.32-4q6.56-10.16,13-20.33,5.69-8.9,11.41-17.79a30.39,30.39,0,0,1,4-4.91l.59-.61c3.76-4,8.2-5.94,13.16-5.77h0c9.66.33,15.6,6,18.79,9.12l.07.07.74.71c2,1.89,11.76,12.14,1.18,26.28L467.77,330c-6.42,8.61-13,17.44-19.63,26.15h5.15c1,0,2,0,3,.06a21.69,21.69,0,0,0,2.77,0,36.88,36.88,0,0,1,20.41,1.9h0c14.36,5.86,22,17.91,21.53,33.95a34.1,34.1,0,0,1-7.12,20.19,24.18,24.18,0,0,1-18.66,9H475a20.72,20.72,0,0,1-10.61-2.83c-.79,16.56-3,41.19-5.11,62-1,9.73-6.09,17.72-15.2,23.76-7.81,5.17-15.54,5.15-20.72,5.15H407.12q-12,0-23.91,0h-.15a34.35,34.35,0,0,1-21.64-7.72c-11.36.06-21.67.09-31.38.09-15.23,0-29.25-.07-42.85-.21A32.82,32.82,0,0,1,271.12,497a39.1,39.1,0,0,1-6.54,2,33.1,33.1,0,0,1-21.11-2.07c-1.74-.79-3.46-1.61-5.16-2.43a20.71,20.71,0,0,1-14.49,6.86c-4.28.26-8.95.4-14.67.45a71.67,71.67,0,0,1-8.27-.5,21.3,21.3,0,0,1-13.54-6.67c-2.08,1-4.42,2-6.93,2.95a35.83,35.83,0,0,1-8,2,15.61,15.61,0,0,1-13.51,7.82H101.72A67.36,67.36,0,0,1,67.75,516.54Zm0-110.25a12.74,12.74,0,0,1-2.19.31A42.25,42.25,0,1,0,91,484a12.76,12.76,0,0,1,7.05-2.13h52a12.75,12.75,0,0,1,15.51-8,9,9,0,0,0,6-.26c2.25-.83,4.52-1.9,6.45-2.83,1.73-.84,3.53-1.79,5.43-2.8l2.86-1.5A12.75,12.75,0,0,1,203.48,472l.95,1.79c.42.79.85,1.59,1.27,2.42,1.12.1,2.23.15,3.23.15,4.2,0,7.74-.12,10.94-.27.41-.8.82-1.56,1.22-2.31.31-.59.63-1.18,1-1.8a12.75,12.75,0,0,1,17.38-5.32l.73.4c.29.16.57.32.85.46l3.68,1.79c3.24,1.58,6.3,3.07,9.41,4.49a7.81,7.81,0,0,0,5.19.31,8.68,8.68,0,0,0,4.08-1.74,12.75,12.75,0,0,1,18,.62,8.93,8.93,0,0,0,6.06,3.12c13.51.14,27.44.21,42.58.21,11,0,22.85,0,36.11-.11h.07a12.75,12.75,0,0,1,9.05,3.77c3.46,3.49,5.79,4,7.79,4,8,0,16.06,0,24.07,0H423.4c3.31,0,5.28,0,6.6-.91,3.65-2.42,3.8-3.94,3.91-5,4.37-43.86,5.77-68.19,5.21-72.84a12.75,12.75,0,0,1,.46-5.23,35.51,35.51,0,0,0,1.14-9.2,30.12,30.12,0,0,1,1.15-8.94l0-.08H430.67a12.75,12.75,0,0,1-12.73-13.12c0-.07,0-.15,0-.23a27,27,0,0,1-.37-5.82,25.24,25.24,0,0,1-6.27,1.78,9.87,9.87,0,0,0-4.54,1.82,12.75,12.75,0,0,1-15.67-.59,5.56,5.56,0,0,0-4.31-1.38,12.75,12.75,0,0,1-13.89-10.93c-4.12-29.67-2.22-58.91,5.83-89.38,3.27-12.4,6.35-24.11,4.75-37.54-2.36-19.82-7.9-34.62-17.45-46.6a46.85,46.85,0,0,1-7.91-14.15,44.34,44.34,0,0,1-2-20.32,30.19,30.19,0,0,0,0-4.2c0-1.42-.1-3,0-4.66-11.39.06-23,.05-33.28,0H307.36c0,2.83-.05,5.6-.13,8.13-.18,5.48-.35,10.66.68,15.33a12.75,12.75,0,0,1-6.29,13.91l0,0a103.25,103.25,0,0,0-9.11,13,12.75,12.75,0,0,1-23.74-6.17,4.86,4.86,0,0,0-.21-1.54,16.7,16.7,0,0,1,1-14.25,60.82,60.82,0,0,0,7-29.29,75.75,75.75,0,0,0-9.06-34.43c-8.34-15.91-20.83-28.27-38.17-37.79-6.38-3.49-8.91-8.53-8-15.86a12.73,12.73,0,0,1,3.29-7q0-7.45,0-14.91H200.81q0,6,0,12v2.66A12.74,12.74,0,0,1,204.42,49v2.17a12.75,12.75,0,0,1-6.28,11l-.29.17c-.55.33-1.07.64-1.61.92A90.9,90.9,0,0,0,184.09,71c-16.08,12.1-26.54,26.67-31.95,44.54a66.61,66.61,0,0,0-2,32.85,61.09,61.09,0,0,0,6,16.85c2.2,4.19,1.69,8,1.28,11.06a44.2,44.2,0,0,0,0,13.14c1.1,8,1.69,16.08,2.26,23.85.3,4.06.61,8.25,1,12.31a19,19,0,0,1-3,12.32c-.4.62-.61,1-.72,1.19-.62,5.36-1.31,10.77-2,16q-.63,5-1.25,9.92l-.06.51a22.75,22.75,0,0,0-.24,2.76c.29,4,.71,8,1.15,12.25l.25,2.36a20.58,20.58,0,0,1,.07,3.22,12.75,12.75,0,0,1-12.73,12.07H103.31a12.77,12.77,0,0,1-2.86-.32,12.72,12.72,0,0,1-2.85.32H83.11l5,78.41a12.77,12.77,0,0,1-.59,4.72,26.33,26.33,0,0,0-.61,11c0,.16,0,.31.06.47A12.75,12.75,0,0,1,72.8,406.85c-1.13-.14-2.05-.22-2.9-.26A12.87,12.87,0,0,1,67.71,406.29Zm151.07,71.95h0Zm248.93-97.12a80.93,80.93,0,0,1,5.65,9c.54,1,1.21,2.14,1.87,3.23a10.92,10.92,0,0,0,.25-2.11c.18-6.12-1.69-8-5.68-9.59h0A8.61,8.61,0,0,0,467.71,381.13Zm-49.77-12.94Zm37.36-54,0,0Zm-320-86.23v0Zm.9-3.77v0Zm165.52-50.52h0Zm5.55-40.94h0ZM200.81,44.83v0Zm-6.62-19.32h0Z"/><path class="cls-1" d="M389,384.55a215.45,215.45,0,0,1,5.84,88c-1.22,8.93-9,16.33-17.69,16.39-29.92.21-59.85.28-89.78,0-10-.11-18.84-9.72-18.78-19.87.16-22.74-1.81-45.62,2.29-68.15,2.59-14.25,7-28.12,9.71-42.37,4.06-21.53,3.65-42.76-.29-64.76-3-17-10.09-32.91-10.72-50.41-1-27.8,7.17-52,24.35-73a8.61,8.61,0,0,1,4.75-3.12,27.92,27.92,0,0,1,6.42-.3c16.63-.05,33.26,0,49.88-.05,3.71,0,7.53.74,11.09-1.14l1.43-.57a37.36,37.36,0,0,0,6.28,11.18c11.86,14.89,17.2,32,19.54,51.6,1.79,15-1.43,27.7-5,41.25C378.15,307.71,378.08,345.84,389,384.55Z"/><path class="cls-1" d="M367.49,165.24l-1.43.57c-3.56,1.88-7.38,1.13-11.09,1.14-16.62.07-33.25,0-49.88.05a27.92,27.92,0,0,0-6.42.3l-.23-1.5c-2.41-9.71-.53-19.6-1.1-29.39-.34-5.87,3.3-7,7.74-7,17.74,0,35.47.07,53.21,0,6.27,0,8.26,3.32,7.8,9.45-.26,3.5.31,7.1-.11,10.57A34.92,34.92,0,0,0,367.49,165.24Z"/><path class="cls-2" d="M298.44,165.81c-2.41-9.71-.53-19.6-1.1-29.39-.34-5.87,3.3-7,7.74-7,17.74,0,35.47.07,53.21,0,6.27,0,8.26,3.32,7.8,9.45-.26,3.5.31,7.1-.11,10.57a34.92,34.92,0,0,0,1.5,15.89,37.36,37.36,0,0,0,6.28,11.18c11.86,14.89,17.2,32,19.54,51.6,1.79,15-1.43,27.7-5,41.25-10.15,38.44-10.22,76.56.67,115.27a215.45,215.45,0,0,1,5.84,88c-1.22,8.93-9,16.33-17.69,16.39-29.92.21-59.85.28-89.78,0-10-.11-18.84-9.72-18.78-19.87.16-22.74-1.81-45.62,2.29-68.15,2.59-14.25,7-28.12,9.71-42.37,4.06-21.53,3.65-42.76-.29-64.76-3-17-10.09-32.91-10.72-50.41-1-27.8,7.17-52,24.35-73a8.61,8.61,0,0,1,4.75-3.12,27.92,27.92,0,0,1,6.42-.3c16.63-.05,33.26,0,49.88-.05,3.71,0,7.53.74,11.09-1.14"/><path class="cls-2" d="M390.44,229.28c-37,7.85-70,25.06-99.72,49.42-2.8,2.3-4.84,5.75-8.9,5.83"/><path class="cls-2" d="M378.24,342.12C349.46,364.62,318,380.87,283,389.31c-2.49.6-4.47,1.71-6.69-.17"/><line class="cls-3" x1="310.21" y1="140.14" x2="310.21" y2="156.65"/><path class="cls-4" d="M304.49,181.1s-21.86,32-27,54.18"/><path class="cls-5" d="M289.32,339.75a13.77,13.77,0,0,1-3.14,9.55c1.76,3.71,1.35,7.73,1.37,11.7q0,10,0,20.05a5.85,5.85,0,0,1-.3,2.63c-.73,1.37-.42,2.56-.08,3.91a15,15,0,0,1,.37,3.69c0,7.16,0,14.33,0,21.49a10.71,10.71,0,0,1-1.37,5.75,2.54,2.54,0,0,0-.21,2.13,17,17,0,0,1,.45,3.67c0,7.58.09,15.16,0,22.74a23.07,23.07,0,0,1-1,5.87c-2.43,8.55-5.7,16.82-8.95,25.08-2.66,6.75-7.8,10.06-14.52,11.49a20.59,20.59,0,0,1-13.15-1.19c-4.5-2.06-8.93-4.27-13.39-6.42-.66-.33-1.31-.7-2-1.1-1.06,2-2.11,3.89-3,5.81a8.11,8.11,0,0,1-7.26,5c-4.66.28-9.35.39-14,.43a57.74,57.74,0,0,1-6.79-.43,8.21,8.21,0,0,1-7-4.79c-.95-2-2-3.9-3.11-6-3,1.56-5.78,3.09-8.63,4.47-2.48,1.2-5,2.35-7.56,3.3-7,2.59-13.67,1.57-20-2a13.44,13.44,0,0,1-5.79-6.28,196.31,196.31,0,0,1-10.5-29.11,17.72,17.72,0,0,1-.56-4.49q-.09-11.06,0-22.11c0-1.37.36-2.72.45-4.09a3.75,3.75,0,0,0-.27-1.91,12.21,12.21,0,0,1-1.27-5.78q.07-10.75,0-21.49c0-1.88.6-3.68.72-5.48s-.77-3.51-.76-5.4c.09-7.71.07-15.43,0-23.15a17.72,17.72,0,0,1,1.35-8c-2.72-3-3.16-6.56-3.12-10.38.09-8.27.13-16.54,0-24.8a50.87,50.87,0,0,1,5.2-22.95,7.13,7.13,0,0,0,.68-4c-.52-5-1.08-10-1.43-15a30.33,30.33,0,0,1,.37-5.74c1.08-8.75,2.26-17.49,3.27-26.25a14.52,14.52,0,0,1,2.61-6.2,6.35,6.35,0,0,0,1.05-4.26c-1.09-11.87-1.56-23.8-3.17-35.61-1.71-12.53.94-18.39.11-20a73.52,73.52,0,0,1-7.25-20.36,79.7,79.7,0,0,1,2.29-39c6.4-21.13,19-37.86,36.49-51a103.3,103.3,0,0,1,13.94-8.84c.43-.22.83-.48,1.3-.76V52a12.69,12.69,0,0,1-1.3-.4,3.35,3.35,0,0,1-2.28-3.14c-.05-.89,0-1.79,0-2.69,0-7.1,0-14.19,0-21.29a19.38,19.38,0,0,1,.43-4.3,5.32,5.32,0,0,1,5.63-4.46q18.6,0,37.2,0A5.27,5.27,0,0,1,236.92,20a15.7,15.7,0,0,1,.44,3.88c0,7.78,0,15.57,0,23.35,0,3.12-.45,3.75-3.39,4.81-.27,2.12-.27,2.11,1.45,3.05,18.57,10.19,33.42,24.16,43.33,43a88,88,0,0,1,10.52,40.19,73.19,73.19,0,0,1-8.49,35.39,4.09,4.09,0,0,0-.38,3.69c1.28,3.3,1.23,6.68.88,10.16-.87,8.49-1.53,17-2.27,25.52-.49,5.62-1,11.25-1.51,16.87a4.6,4.6,0,0,0,.8,3.5c2.24,2.9,2.85,6.28,3.26,9.83.92,8.21,2.1,16.4,3.06,24.6a32.08,32.08,0,0,1,0,6.17c-.37,4.74-.92,9.46-1.31,14.2a4.79,4.79,0,0,0,.51,2.34,54.14,54.14,0,0,1,5.26,18.58c.11,1.23.16,2.47.16,3.71C289.31,321.83,289.27,330.79,289.32,339.75Zm-6.94.27q0-11.67,0-23.34c0-.54-.05-1.08-.1-1.85a18.3,18.3,0,0,0-2.44,0c-11.66,1.65-23.38,2.69-35.12,3.46a414.41,414.41,0,0,1-42.32.85c-10.79-.39-21.58-1.14-32.36-1.94-8.37-.63-16.71-1.58-25.07-2.37-.57-.05-1.16,0-1.79,0,0,.66-.1,1.06-.1,1.46q0,12.09,0,24.17a5.82,5.82,0,0,0,.37,2.42,5.74,5.74,0,0,0,1.74,2.18,11.32,11.32,0,0,0,6.16,1.91c3.09.14,6.16.61,9.25.85,10,.8,20,1.66,30.06,2.3a343.39,343.39,0,0,0,34.89.44c10.25-.38,20.49-1,30.72-1.73,6.38-.46,12.73-1.36,19.1-1.95a13.07,13.07,0,0,0,5.29-2.06,3.58,3.58,0,0,0,1.59-2.77A14.28,14.28,0,0,0,282.39,340Zm0-29.07c-.06-.84-.07-1.79-.2-2.73a51,51,0,0,0-5-15.68,6.42,6.42,0,0,1-.79-3.11c.45-5.84,1.05-11.66,1.59-17.49a10.57,10.57,0,0,0,0-2.25c-1-7.79-2.09-15.56-2.89-23.38-.42-4.13-1.29-8-3.81-11.35a4.64,4.64,0,0,1-.75-3.34q2.13-23.87,4.2-47.75a4.84,4.84,0,0,0-.09-1.63,45.8,45.8,0,0,0-1.5-5.15,4.45,4.45,0,0,1,.31-4.12c9.63-17.11,11.44-35.16,6.2-53.93-7.6-27.18-25.09-46.17-49.74-59-2-1.05-3.17-2.3-2.93-4.63a15,15,0,0,0,0-1.66v-6.1c-3-.43-26.79-.3-28.33.14,0,2.66,0,5.33,0,8a4,4,0,0,1-2.59,4,83.81,83.81,0,0,0-14.31,8.61c-16.91,12.37-29.08,28.2-35.19,48.42a73.07,73.07,0,0,0-2.69,32.26,67.12,67.12,0,0,0,8,23.31,5.23,5.23,0,0,1,.46,5,15.94,15.94,0,0,0-1.17,9.69,5,5,0,0,1,.08.82q1.75,20.18,3.49,40.34c.57,6.42.8,4.46-2.2,9.66a10.82,10.82,0,0,0-1.48,4.23c-1,8.13-2,16.27-3.08,24.39a34.65,34.65,0,0,0-.06,8.84c.51,4.37.83,8.77,1.27,13.16a7.67,7.67,0,0,1-.72,4c-1.44,3.34-2.78,6.74-3.94,10.19a26.39,26.39,0,0,0-1.3,8.24C189.69,317,236,317.77,282.34,310.94Zm-3,105.42a5.35,5.35,0,0,0,1.29-3.6c0-7.23,0-14.47,0-21.7,0-.65-.12-1.3-.22-2.23-45.19,6.42-90.17,5.71-135.31,0a12.78,12.78,0,0,0-.25,1.61c0,7.58,0,15.15,0,22.74a5.76,5.76,0,0,0,.91,2.66c.72,1.23,1.43,2.71,2.56,3.39s2.78.52,4.2.72c.21,0,.41,0,.62.06,8.78.74,17.56,1.64,26.35,2.18,10.51.65,21,1.3,31.58,1.36,10.94.06,21.9-.36,32.83-1,10.3-.63,20.56-1.86,30.85-2.77,1.53-.14,2.8-.35,3.4-2C278.37,417.22,279,416.83,279.39,416.36Zm.45-34.17c.91-.53.82-1.34.82-2.16q0-12,0-24a10.54,10.54,0,0,0-.39-2.85,4.45,4.45,0,0,0-4.55-2.94c-8.56.85-17.11,1.76-25.68,2.51-11.8,1-23.64,1.56-35.48,1.44-11.28-.12-22.57-.65-33.84-1.24-7.42-.39-14.82-1.21-22.22-1.86-3-.27-6-.6-9-.89a3.12,3.12,0,0,0-2.24.6c-2,1.37-2.35,3.24-2.35,5.39,0,5,0,9.92,0,14.88,0,3,0,6.06,0,9.09a2.5,2.5,0,0,0,.62,1.8,4.69,4.69,0,0,1,2,3.65c43.54,5.39,87,6,130.56,0A3.61,3.61,0,0,1,279.84,382.19Zm-.33,64.41c.08-7.23,0-14.47,0-21.7,0-.6-.1-1.19-.16-2-1.08.05-2,.06-3,.17-4.17.47-8.34,1.05-12.51,1.46q-19,1.88-38.13,2.44A401.39,401.39,0,0,1,183,426c-11.39-.9-22.77-2-34.16-2.92-.87-.08-1.75,0-2.93,0v2.5c0,6.81,0,13.63,0,20.45a17.3,17.3,0,0,0,.6,4.47,215.27,215.27,0,0,0,9.38,26,9.16,9.16,0,0,0,4.81,4.88,16.28,16.28,0,0,0,13.4.62,136.9,136.9,0,0,0,17.12-8.66c2.69-1.54,4.51-1,5.86,1.79,1.28,2.59,2.62,5.15,3.82,7.78a3.37,3.37,0,0,0,3.22,2.1c1.52.08,3,.23,4.54.21a6.36,6.36,0,0,0,2.34-.5,3.77,3.77,0,0,1,3.37,0,3.57,3.57,0,0,0,1.52.53c2-.05,4-.19,6-.34a2.85,2.85,0,0,0,2.49-1.84c1.33-2.8,2.72-5.57,4.12-8.33,1.17-2.3,3-2.86,5.32-1.63.55.29,1.07.63,1.61.94a133,133,0,0,0,15.67,7.86,15.31,15.31,0,0,0,8.49,1c4.89-.82,8.69-2.88,10.63-7.94,3-7.84,6.13-15.63,8.45-23.72A18,18,0,0,0,279.51,446.6ZM230.43,43.83V22.67h-4.26c-.38,2.79-.27,19.64.13,21.16Zm-8.13,0V22.7h-3.94V43.86Zm-7.74,0V22.69h-4V43.85Zm-7.68,0V22.71c-.5-.07-.89-.15-1.28-.17-.88,0-1.75,0-2.8,0V43.82Zm-7.81.11V22.71h-3.89c-.39,2.54-.3,19.58.13,21.22h3.76Z"/><path class="cls-1" d="M282.39,316.67q0,11.66,0,23.34a14.28,14.28,0,0,1-.11,2.06,3.58,3.58,0,0,1-1.59,2.77,13.07,13.07,0,0,1-5.29,2.06c-6.37.59-12.72,1.49-19.1,1.95-10.23.72-20.47,1.35-30.72,1.73a343.39,343.39,0,0,1-34.89-.44c-10-.64-20-1.5-30.06-2.3-3.08-.24-6.16-.71-9.25-.85a11.32,11.32,0,0,1-6.16-1.91,5.74,5.74,0,0,1-1.74-2.18,5.82,5.82,0,0,1-.37-2.42q0-12.09,0-24.17c0-.4.05-.81.1-1.46.63,0,1.22,0,1.79,0,8.36.79,16.7,1.75,25.07,2.37,10.78.8,21.57,1.55,32.36,1.94a414.41,414.41,0,0,0,42.32-.85c11.74-.77,23.46-1.82,35.12-3.46a18.3,18.3,0,0,1,2.44,0C282.33,315.59,282.39,316.13,282.39,316.67Z"/><path class="cls-1" d="M282.14,308.21c.13.94.14,1.89.2,2.73C236,317.77,189.69,317,143.18,311a26.39,26.39,0,0,1,1.3-8.24c1.15-3.45,2.49-6.84,3.94-10.19a7.67,7.67,0,0,0,.72-4c-.44-4.39-.76-8.79-1.27-13.16a34.65,34.65,0,0,1,.06-8.84c1.1-8.13,2.08-16.26,3.08-24.39a10.82,10.82,0,0,1,1.48-4.23c3-5.2,2.78-3.23,2.2-9.66q-1.77-20.16-3.49-40.34a5,5,0,0,0-.08-.82,15.94,15.94,0,0,1,1.17-9.69,5.23,5.23,0,0,0-.46-5,67.12,67.12,0,0,1-8-23.31,73.07,73.07,0,0,1,2.69-32.26c6.11-20.22,18.29-36,35.19-48.42A83.81,83.81,0,0,1,196,59.84a4,4,0,0,0,2.59-4c0-2.69,0-5.36,0-8,1.54-.44,25.37-.57,28.33-.14v6.1a15,15,0,0,1,0,1.66c-.24,2.33.9,3.58,2.93,4.63,24.65,12.86,42.14,31.84,49.74,59,5.25,18.76,3.43,36.82-6.2,53.93a4.45,4.45,0,0,0-.31,4.12,45.8,45.8,0,0,1,1.5,5.15,4.84,4.84,0,0,1,.09,1.63q-2.08,23.88-4.2,47.75a4.64,4.64,0,0,0,.75,3.34c2.52,3.37,3.39,7.22,3.81,11.35.8,7.81,1.92,15.59,2.89,23.38a10.57,10.57,0,0,1,0,2.25c-.53,5.83-1.14,11.65-1.59,17.49a6.42,6.42,0,0,0,.79,3.11A51,51,0,0,1,282.14,308.21Z"/><path class="cls-1" d="M280.68,412.76a5.35,5.35,0,0,1-1.29,3.6c-.4.47-1,.86-1.2,1.4-.6,1.68-1.87,1.89-3.4,2-10.28.91-20.55,2.14-30.85,2.77-10.93.66-21.89,1.08-32.83,1-10.53-.05-21.06-.71-31.58-1.36-8.8-.54-17.57-1.44-26.35-2.18-.21,0-.41,0-.62-.06-1.42-.21-3.07,0-4.2-.72s-1.84-2.16-2.56-3.39a5.76,5.76,0,0,1-.91-2.66c-.07-7.58,0-15.16,0-22.74a12.78,12.78,0,0,1,.25-1.61c45.14,5.68,90.12,6.39,135.31,0,.1.93.21,1.58.22,2.23C280.66,398.29,280.64,405.53,280.68,412.76Z"/><path class="cls-1" d="M280.66,380c0,.82.08,1.63-.82,2.16a3.61,3.61,0,0,0-1.75,3.45c-43.53,6-87,5.39-130.56,0a4.69,4.69,0,0,0-2-3.65,2.5,2.5,0,0,1-.62-1.8c-.07-3,0-6.06,0-9.09,0-5,0-9.92,0-14.88,0-2.14.36-4,2.35-5.39a3.12,3.12,0,0,1,2.24-.6c3,.29,6,.62,9,.89,7.41.65,14.8,1.47,22.22,1.86,11.27.6,22.55,1.12,33.84,1.24,11.84.12,23.68-.41,35.48-1.44,8.57-.75,17.12-1.66,25.68-2.51a4.45,4.45,0,0,1,4.55,2.94,10.54,10.54,0,0,1,.39,2.85Q280.68,368,280.66,380Z"/><path class="cls-1" d="M279.54,424.9c0,7.23.05,14.47,0,21.7a18,18,0,0,1-.79,4.65c-2.32,8.09-5.44,15.88-8.45,23.72-1.94,5.06-5.74,7.12-10.63,7.94a15.31,15.31,0,0,1-8.49-1A133,133,0,0,1,235.48,474c-.54-.31-1.06-.65-1.61-.94-2.28-1.23-4.15-.67-5.32,1.63-1.4,2.76-2.79,5.53-4.12,8.33a2.85,2.85,0,0,1-2.49,1.84c-2,.14-4,.28-6,.34a3.57,3.57,0,0,1-1.52-.53,3.77,3.77,0,0,0-3.37,0,6.36,6.36,0,0,1-2.34.5c-1.51,0-3-.12-4.54-.21a3.37,3.37,0,0,1-3.22-2.1c-1.2-2.63-2.54-5.19-3.82-7.78-1.35-2.76-3.17-3.33-5.86-1.79A136.9,136.9,0,0,1,174.16,482a16.28,16.28,0,0,1-13.4-.62,9.16,9.16,0,0,1-4.81-4.88,215.27,215.27,0,0,1-9.38-26A17.3,17.3,0,0,1,146,446c-.06-6.82,0-13.64,0-20.45V423c1.17,0,2.06-.06,2.93,0,11.39,1,22.77,2,34.16,2.92a401.39,401.39,0,0,0,42.74,1q19.11-.54,38.13-2.44c4.17-.41,8.34-1,12.51-1.46.93-.11,1.88-.11,3-.17C279.44,423.71,279.54,424.3,279.54,424.9Z"/><path class="cls-1" d="M230.43,22.67V43.83h-4.14c-.4-1.52-.51-18.36-.13-21.16Z"/><path class="cls-1" d="M222.3,22.7V43.86h-3.94V22.7Z"/><path class="cls-1" d="M214.56,22.69V43.85h-4V22.69Z"/><path class="cls-1" d="M206.88,22.71V43.82H202.8V22.54c1,0,1.92,0,2.8,0C206,22.56,206.39,22.64,206.88,22.71Z"/><path class="cls-1" d="M199.07,22.71V43.93h-3.76c-.43-1.64-.52-18.68-.13-21.22Z"/><path class="cls-6" d="M144.9,174.15a73.52,73.52,0,0,1-7.25-20.36,79.7,79.7,0,0,1,2.29-39c6.4-21.13,19-37.86,36.49-51a103.3,103.3,0,0,1,13.94-8.84c.43-.22.83-.48,1.3-.76V52a12.69,12.69,0,0,1-1.3-.4,3.35,3.35,0,0,1-2.28-3.14c-.05-.89,0-1.79,0-2.69,0-7.1,0-14.19,0-21.29a19.38,19.38,0,0,1,.43-4.3,5.32,5.32,0,0,1,5.63-4.46q18.6,0,37.2,0A5.27,5.27,0,0,1,236.92,20a15.7,15.7,0,0,1,.44,3.88c0,7.78,0,15.57,0,23.35,0,3.12-.45,3.75-3.39,4.81-.27,2.12-.27,2.11,1.45,3.05,18.57,10.19,33.42,24.16,43.33,43a88,88,0,0,1,10.52,40.19,73.19,73.19,0,0,1-8.49,35.39,4.09,4.09,0,0,0-.38,3.69c1.28,3.3,1.23,6.68.88,10.16-.87,8.49-1.53,17-2.27,25.52-.49,5.62-1,11.25-1.51,16.87a4.6,4.6,0,0,0,.8,3.5c2.24,2.9,2.85,6.28,3.26,9.83.92,8.21,2.1,16.4,3.06,24.6a32.08,32.08,0,0,1,0,6.17c-.37,4.74-.92,9.46-1.31,14.2a4.79,4.79,0,0,0,.51,2.34,54.14,54.14,0,0,1,5.26,18.58c.11,1.23.16,2.47.16,3.71,0,9,0,17.91,0,26.87a13.77,13.77,0,0,1-3.14,9.55c1.76,3.71,1.35,7.73,1.37,11.7q0,10,0,20.05a5.85,5.85,0,0,1-.3,2.63c-.73,1.37-.42,2.56-.08,3.91a15,15,0,0,1,.37,3.69c0,7.16,0,14.33,0,21.49a10.71,10.71,0,0,1-1.37,5.75,2.54,2.54,0,0,0-.21,2.13,17,17,0,0,1,.45,3.67c0,7.58.09,15.16,0,22.74a23.07,23.07,0,0,1-1,5.87c-2.43,8.55-5.7,16.82-8.95,25.08-2.66,6.75-7.8,10.06-14.52,11.49a20.59,20.59,0,0,1-13.15-1.19c-4.5-2.06-8.93-4.27-13.39-6.42-.66-.33-1.31-.7-2-1.1-1.06,2-2.11,3.89-3,5.81a8.11,8.11,0,0,1-7.26,5c-4.66.28-9.35.39-14,.43a57.74,57.74,0,0,1-6.79-.43,8.21,8.21,0,0,1-7-4.79c-.95-2-2-3.9-3.11-6-3,1.56-5.78,3.09-8.63,4.47-2.48,1.2-5,2.35-7.56,3.3-7,2.59-13.67,1.57-20-2a13.44,13.44,0,0,1-5.79-6.28,196.31,196.31,0,0,1-10.5-29.11,17.72,17.72,0,0,1-.56-4.49q-.09-11.06,0-22.11c0-1.37.36-2.72.45-4.09a3.75,3.75,0,0,0-.27-1.91,12.21,12.21,0,0,1-1.27-5.78q.07-10.75,0-21.49c0-1.88.6-3.68.72-5.48s-.77-3.51-.76-5.4c.09-7.71.07-15.43,0-23.15a17.72,17.72,0,0,1,1.35-8c-2.72-3-3.16-6.56-3.12-10.38.09-8.27.13-16.54,0-24.8a50.87,50.87,0,0,1,5.2-22.95,7.13,7.13,0,0,0,.68-4c-.52-5-1.08-10-1.43-15a30.33,30.33,0,0,1,.37-5.74c1.08-8.75,2.26-17.49,3.27-26.25a14.52,14.52,0,0,1,2.61-6.2,6.35,6.35,0,0,0,1.05-4.26c-1.09-11.87-1.56-23.8-3.17-35.61C143.08,181.58,145.73,175.72,144.9,174.15Z"/><polygon class="cls-1" points="171.87 291.24 169.36 330.45 105.56 330.45 100.81 291.24 171.87 291.24"/><polygon class="cls-1" points="169.36 330.45 160.12 475.1 158.7 475.01 85.18 475.01 84.28 475.07 75.04 330.45 75.05 330.45 105.56 330.45 169.36 330.45"/><polygon class="cls-1" points="160.12 475.1 158.86 494.78 85.54 494.78 84.28 475.07 85.18 475.01 158.7 475.01 160.12 475.1"/><polygon class="cls-1" points="100.81 291.24 105.56 330.45 75.05 330.45 75.04 330.45 72.54 291.24 100.81 291.24"/><polygon class="cls-2" points="75.04 330.45 72.54 291.24 100.81 291.24 171.87 291.24 169.36 330.45 160.12 475.1 158.86 494.78 85.54 494.78 84.28 475.07 75.04 330.45"/><polyline class="cls-2" points="56.34 231.42 96.61 256.61 100.81 291.24 105.56 330.45"/><polyline class="cls-2" points="169.36 330.45 105.56 330.45 75.05 330.45"/><line class="cls-2" x1="158.7" y1="475.01" x2="85.18" y2="475.01"/><circle class="cls-1" cx="67.75" cy="451.77" r="52.17"/><path class="cls-1" d="M99.73,366.39c5.45,26.78-22.62,31.2-22.62,30.4C73.21,365.57,99.73,366.39,99.73,366.39Z"/><circle class="cls-2" cx="67.75" cy="451.77" r="52.17"/><path class="cls-2" d="M33.16,431.77a40.46,40.46,0,0,1,34.94-20"/><path class="cls-2" d="M47.86,487.34A40.48,40.48,0,0,1,27.6,452.26"/><path class="cls-2" d="M45.13,373.71s23.4,4.5,22.62,25.89"/><path class="cls-2" d="M99.73,366.39s-26.53-.82-22.62,30.4C77.11,397.59,105.19,393.17,99.73,366.39Z"/><path class="cls-2" d="M197.07,74.55s-39.42,18.6-42.22,64.53"/><line class="cls-2" x1="160.96" y1="187.69" x2="164.74" y2="227.96"/><line class="cls-2" x1="161.72" y1="246.61" x2="157.65" y2="276.45"/><path class="cls-1" d="M358.7,383a9.74,9.74,0,0,1-2.26.28c-4.17,0-7.51-2.89-6.45-7.6,2.5,0,10.57-.12,20.21-.28,13-.2,28.88-.48,37.77-.62l6.84-.11c4.32,0,8.62.12,12.94.28,8.53.3,17.06.73,25.59.71a49.27,49.27,0,0,0,8.42-1.19,21.3,21.3,0,0,1,11.79,1c8.41,3.43,12.13,9.49,11.85,19.06a18.27,18.27,0,0,1-3.82,11.06,8.61,8.61,0,0,1-6.49,3.06c-8.61,0-11.32-19.81-22.5-24.77a13,13,0,0,0-5.35-1.11c-28.49-.17-57-.07-85.46,0A13.08,13.08,0,0,0,358.7,383Z"/><path class="cls-1" d="M427.77,373.91l0,1c-4.32-.16-8.62-.28-12.94-.28l-6.84.11,0-1.63a79.47,79.47,0,0,0-8.76-10.7l.38-.37a19.83,19.83,0,0,1,10.28-4.68c6.58-1,10.71-5.68,14.12-11,8.19-12.68,16.28-25.43,24.46-38.12a21.37,21.37,0,0,1,2.65-3.06c.43-.45,1-1.12,1.51-1.1,4.19.14,6.77,3.16,9.5,5.72,2.11,2,.55,3.95-.73,5.67-9.52,12.73-19,25.5-28.64,38.12-3.69,4.82-6.07,9.83-5,16.06A24.2,24.2,0,0,1,427.77,373.91Z"/><path class="cls-1" d="M408,374.78c-8.89.14-24.76.42-37.77.62l0-1.87c.08-7.52,4.27-12.51,10.73-15.12a16,16,0,0,1,17.71,3.46l.56.58a79.47,79.47,0,0,1,8.76,10.7Z"/><path class="cls-1" d="M449.13,405.58c0,.15-.38.32-.35.38a2.71,2.71,0,0,1,.1.31l-.5.08c-1.2-.81-2.55-.35-3.81-.36q-42.16-.05-84.32,0l-.81.07c-.63-7.39-1.83-14.74-1.85-22.2l-1.14-.56a9.74,9.74,0,0,0,2.26-.28,13.08,13.08,0,0,1,3.07-.28c28.49,0,57-.13,85.46,0a13,13,0,0,1,5.35,1.11v.35a21,21,0,0,0-1.93,9.16A46.32,46.32,0,0,1,449.13,405.58Z"/><path class="cls-1" d="M448.88,406.26c1.73,6.78-4.43,69-5.09,75.62-.56,5.57-3.67,9.25-8.31,12.32-4.3,2.85-8.81,2.55-13.43,2.55-13,0-25.94,0-38.91,0-6.52,0-11.39-3.14-15.63-7.65a8.13,8.13,0,0,1-2.2-5.33c0-5.88-5.3-64.32-5.53-72.11-.06-1.89-.18-3.77-.34-5.66l.81-.07q42.16,0,84.32,0c1.26,0,2.61-.45,3.81.36Z"/><path class="cls-2" d="M399.54,362.09a19.83,19.83,0,0,1,10.28-4.68c6.58-1,10.71-5.68,14.12-11,8.19-12.68,16.28-25.43,24.46-38.12a21.37,21.37,0,0,1,2.65-3.06c.43-.45,1-1.12,1.51-1.1,4.19.14,6.77,3.16,9.5,5.72,2.11,2,.55,3.95-.73,5.67-9.52,12.73-19,25.5-28.64,38.12-3.69,4.82-6.07,9.83-5,16.06a24.2,24.2,0,0,1,0,4.19"/><path class="cls-2" d="M452.57,384.22a21,21,0,0,0-1.93,9.16,46.32,46.32,0,0,1-1.52,12.2c0,.15-.38.32-.35.38a2.71,2.71,0,0,1,.1.31c1.73,6.78-4.43,69-5.09,75.62-.56,5.57-3.67,9.25-8.31,12.32-4.3,2.85-8.81,2.55-13.43,2.55-13,0-25.94,0-38.91,0-6.52,0-11.39-3.14-15.63-7.65a8.13,8.13,0,0,1-2.2-5.33c0-5.88-5.3-64.32-5.53-72.11-.06-1.89-.18-3.77-.34-5.66-.63-7.39-1.83-14.74-1.85-22.2"/><path class="cls-2" d="M475.08,408.63a8.61,8.61,0,0,0,6.49-3.06,18.27,18.27,0,0,0,3.82-11.06c.28-9.57-3.43-15.63-11.85-19.06a21.3,21.3,0,0,0-11.79-1,49.27,49.27,0,0,1-8.42,1.19c-8.53,0-17.06-.41-25.59-.71-4.32-.16-8.62-.28-12.94-.28l-6.84.11c-8.89.14-24.76.42-37.77.62-9.64.16-17.71.28-20.21.28-1.06,4.71,2.29,7.6,6.45,7.6a9.74,9.74,0,0,0,2.26-.28,13.08,13.08,0,0,1,3.07-.28c28.49,0,57-.13,85.46,0a13,13,0,0,1,5.35,1.11c11.18,5,13.89,24.77,22.5,24.77"/><path class="cls-2" d="M360.24,406q42.16,0,84.32,0c1.26,0,2.61-.45,3.81.36"/><path class="cls-2" d="M443,482.63q-37.19,0-74.39,0"/><path class="cls-2" d="M370.17,373.53c.08-7.52,4.27-12.51,10.73-15.12a16,16,0,0,1,17.71,3.46l.56.58a79.47,79.47,0,0,1,8.76,10.7"/><path class="cls-2" d="M285,311.57s-37.39,11.14-113.12,3.21"/><path class="cls-2" d="M285,347.82s-37.39,10-113.12,2.88"/><path class="cls-2" d="M285,386.11s-39.45,10-119.35,2.88"/><path class="cls-2" d="M284,420s-39.45,10-119.35,2.88"/></g></g></svg>