<svg xmlns="http://www.w3.org/2000/svg" viewBox="0 0 496.49 501.06"><defs><style>.cls-1{fill:#fff;}.cls-2,.cls-3,.cls-4,.cls-5{fill:none;stroke:#4aae47;stroke-linecap:round;stroke-linejoin:round;}.cls-2{stroke-width:8px;}.cls-3{stroke-width:6px;}.cls-4{stroke-width:4px;}.cls-5{stroke-width:7px;}</style></defs><title>Limpieza y Cuidados del Hogar</title><g id="Layer_2" data-name="Layer 2"><g id="Layer_1-2" data-name="Layer 1"><path class="cls-1" d="M441.37,288.55c-6.18-4.3-7.87-7.66-6.94-13.8,1.18-7.84-2.13-13.49-5.59-18.4,3.89-8.49,7-20-1.09-31.43l.7-.86a34,34,0,0,0,5.5-8.25c5.51-13.13,1.83-19.54-2.23-22.62a11.1,11.1,0,0,1-3.29-3.74c-1.57-3-1.34-6.67-1.08-10.9,0-.53.07-1.06.1-1.6.33-5.93,0-11.77-5.88-14a28.25,28.25,0,0,1,4.62-9.26c5.8,11.46,13.72,22.62,21.81,30.61,1.1,1.09,2.16,2.29,3.27,3.57,3.86,4.42,8.24,9.42,15.79,10.46q.51.07,1,.12h.34a6.19,6.19,0,0,0,4.56-2.78c3-6.6-.49-11.46-2.76-14.68-.38-.54-.76-1.08-1.11-1.62-6.7-10.42-12-23.45-15.36-37.87,3.52-.29,7.19-.43,11.12-.39,2,0,4.07,0,6.4,0h3.38a4,4,0,0,0,4-4c0-2.22,0-4.36-.06-6.43-.06-4.41-.11-8.58.13-12.62.16-2.67.07-6.54-2.54-9.25S470,106,467.5,106c-8,.17-16.13-.3-24-.75-5.1-.29-10.38-.59-15.64-.73-17.49-.44-34.37-.49-48.63,3.68-17.76,5.2-23.53,16.16-31.52,31.32L346.39,142c0,.09-.07.19-.12.29a4,4,0,0,0-.16.39c0,.12-.06.24-.08.37a4,4,0,0,0-.08.4c0,.13,0,.25,0,.38s0,.26,0,.39,0,.25.06.37,0,.26.08.38.08.24.13.35.09.24.15.36.13.22.2.33.13.22.21.32a4,4,0,0,0,.27.3c.09.09.17.18.27.27a4,4,0,0,0,.34.25c.08.06.16.13.25.18l.13.07h0c4.69,2.68,10.12,2.92,15.37,3.16,4,.18,7.76.35,10.62,1.59l1,.43c5.94,2.56,9.56,4.34,11,8.69a8.67,8.67,0,0,0-3.65,1.91c-3.13,2.77-3.64,7.35-3.73,11.47,0,1.6,0,3.19,0,4.73,0,2.28.09,4.47-.08,6.59A154.74,154.74,0,0,0,136,219.33c-3.46-20.77-2.92-40.89,1.71-55.8,2.66-8.58,6.47-20.87,8.33-33.67a33.6,33.6,0,0,1,10.13,24.06,4,4,0,0,0,4,4h.29a4,4,0,0,0,4-4,33.75,33.75,0,0,1,33.71-33.71,4,4,0,0,0,4-4s0,0,0,0,0,0,0,0a4,4,0,0,0-4-4,33.75,33.75,0,0,1-33.71-33.71,4,4,0,0,0-4-4h-.29a4,4,0,0,0-4,4,33.6,33.6,0,0,1-10.33,24.25,42.09,42.09,0,0,0-3.11-9.32c-7.31-15.28-22.26-22.08-30-24.68A5,5,0,0,0,116.23,64V61.64A5,5,0,0,0,113,57V34.88a8.2,8.2,0,0,0-8.39-8h-1.79V25.22a6.41,6.41,0,0,0,1.75-4.41A8.82,8.82,0,0,0,95.78,12H78.44A11.28,11.28,0,0,0,67.18,23.26,4,4,0,0,0,70,27.08a8.1,8.1,0,0,0-6.65,7.8V57a5,5,0,0,0-3.2,4.6V64a5,5,0,0,0,4.49,4.92c-6.29,2.7-20,9.06-28.17,16.22C25.73,94.6,25,99.45,25,106.31c0,5.42,1.58,19.78,5.95,37.11,4.53,18,7.26,50.23,3.42,74.59-1.09,6.9-3.36,19.15-6,33.33-5.41,29.19-12.15,65.51-14.13,84.74-4.11,39.77-1.76,62.41,1.47,85.86,3.94,28.58,7.85,36.26,10.82,39.75,3.58,4.21,12.92,8.65,55.09,9.59,1.63,0,3.28.05,4.93.05,15.76,0,32.32-1.52,39.67-3.11,8-1.73,17.33-7.31,19.46-17.74,1.08-5.32,3.28-29.06,5.24-55.26a156.24,156.24,0,0,0,26,24.91,37.61,37.61,0,0,0-11.71,24.72,19.19,19.19,0,1,0,12.7,30.93,37.65,37.65,0,0,0,56.2-7.27,32.51,32.51,0,0,0,22.08,3.26A23.3,23.3,0,1,0,295.82,450a19.35,19.35,0,0,0,9.15,2.31,19,19,0,0,0,10.46-3.14h0a19,19,0,0,0,6.08-6.45l.18-.06c1.41,5.65,3,11.31,4.85,17,3,9.31,8.76,13.48,18.64,13.48h.35c24.84-.23,50.1-.19,74.54-.16l27.17,0c13.54,0,18.56-3.9,22.38-17.39q1.1-3.86,2.22-7.72c4.53-15.71,9.21-31.95,11.24-48.83C489.15,348.49,475.51,312.34,441.37,288.55Z"/><path class="cls-1" d="M278.69,501.06a35.36,35.36,0,0,1-30-16.63,44.58,44.58,0,0,1-11-1.6,49.63,49.63,0,0,1-59.22,8,31.2,31.2,0,0,1-41.75-9.89,31.86,31.86,0,0,1-1.7-2.92,42.07,42.07,0,0,1-6.35,1.91c-9,2-26.8,3.39-42.21,3.39-1.74,0-3.48,0-5.19-.05-44.54-1-57.19-5.82-64-13.82-5.18-6.1-9.47-16.24-13.55-45.87C.44,399.34-2,375.94,2.26,334.85c2-19.73,8.82-56.31,14.27-85.7,2.62-14.11,4.87-26.27,5.93-33,3.47-22,1.09-52.74-3.2-69.8-4.34-17.22-6.31-32.82-6.31-40,0-10.67,2.49-18.65,15.63-30.21,5.52-4.86,12.91-9.25,19.61-12.71V61.64a16.87,16.87,0,0,1,3.2-9.84V34.88a19.65,19.65,0,0,1,3.79-11.56v-.06A23.28,23.28,0,0,1,78.44,0H95.78a20.84,20.84,0,0,1,20.7,18.63A19.85,19.85,0,0,1,125,34.88V51.8a16.88,16.88,0,0,1,3.2,9.85v.78a62.91,62.91,0,0,1,16.3,12.52,16,16,0,0,1,15.61-12.49h1a16,16,0,0,1,15.34,16,21.73,21.73,0,0,0,21.71,21.71,16,16,0,0,1,16,14.89l0,.24v.87l0,1.17a16,16,0,0,1-16,14.89,21.73,21.73,0,0,0-21.71,21.71,15.93,15.93,0,0,1-.92,5.35A166.63,166.63,0,0,1,334,142.3v-.11a15.12,15.12,0,0,1,.26-1.58,14.41,14.41,0,0,1,.38-1.49c.18-.58.38-1.06.5-1.35a13.1,13.1,0,0,1,.6-1.31l1.32-2.5c8.29-15.73,16.12-30.6,38.76-37.23,15.92-4.66,33.83-4.63,52.31-4.17,5.46.14,10.83.45,16,.75,7.71.44,15.6.89,23.07.73s13.3,2,17.61,6.51,6.32,10.67,5.86,18.29c-.22,3.59-.17,7.52-.11,11.69,0,2.2.06,4.37.06,6.64a16,16,0,0,1-16,16h-5a98,98,0,0,0,9.54,19.76c.23.36.49.72.75,1.09l.07.09c2.64,3.73,9.68,13.67,3.92,26.52a17.67,17.67,0,0,1-16.83,9.81c-.61-.05-1.18-.12-1.74-.2a31.53,31.53,0,0,1-16.7-7.79c.25,4.94-.69,10.9-3.67,18a34.13,34.13,0,0,1-3,5.57c3.67,8.87,3.75,18.61.22,29.09a32.76,32.76,0,0,1,4.06,21.44c0,.24-.06.44-.08.6a18.68,18.68,0,0,0,2,1.56h0c19,13.25,32.57,30.35,40.29,50.82,7.65,20.27,9.76,43.48,6.46,71-2.14,17.84-7,34.55-11.62,50.72q-1.11,3.85-2.2,7.68C475.91,477.44,466.08,485,447.24,485l-27.18,0h-.48c-24.24,0-49.32-.07-73.93.16h-.46c-15.06,0-25.46-7.54-30.06-21.79l-.22-.69-1,.33q.11,1.38.11,2.77A35.34,35.34,0,0,1,278.69,501.06Zm-13.84-43.34,2.92,11A11.3,11.3,0,1,0,287,458.12l-48.44-52.58,63,33.88a7.27,7.27,0,0,0,2,.71,7.11,7.11,0,0,0,7.65-3.43l2.19-3.8,4.3-1.55L330.07,427l3.28,12.77c1.38,5.52,2.93,11,4.62,16.24,1.4,4.34,2.55,5.16,7.22,5.16h.25c24.73-.23,49.87-.19,74.17-.16h.48l27.15,0c5.45,0,7-.78,7.47-1.11s1.75-1.84,3.37-7.55q1.11-3.9,2.23-7.78c4.4-15.25,8.95-31,10.85-46.93,5.57-46.4-6.07-77.93-36.64-99.24h0c-6.66-4.63-14-11.71-11.95-25.45.44-2.95-.38-5.21-3.54-9.69l-4-5.64,2.88-6.27c3.81-8.32,3.82-14.14,0-19.48l-5.29-7.44,6.49-8a25.45,25.45,0,0,0,3.72-5.3c2.27-5.4,1.92-7.93,1.7-8.31h0l-.11-.1a23.11,23.11,0,0,1-6.69-7.78c-3.1-6-2.73-11.92-2.4-17.18l.09-1.53c.07-1.22.08-2.09.07-2.72L407,170.37l3.07-10.7a40.18,40.18,0,0,1,6.58-13.18l11.59-15.36,8.69,17.17A117.18,117.18,0,0,0,450,168.59a149.78,149.78,0,0,1-7.88-24.31l-3.18-13.56,13.88-1.15c4-.33,8-.47,12.21-.43h1.59c0-3.82-.06-7.44.14-11.11-8.07.12-16.08-.33-23.83-.78-5.1-.29-10.27-.59-15.36-.72-16.5-.42-32.35-.49-44.95,3.2-10.44,3.06-14.77,8.07-20.72,18.77l2.1.1c4.68.21,10,.45,14.87,2.57l1,.42c6.1,2.63,14.46,6.23,17.63,16l3.94,12.14-10.58,2.73c-.07.55-.13,1.34-.15,2.46,0,1.38,0,2.83,0,4.23a76.48,76.48,0,0,1-.12,7.8l-2,25.58-18.32-18a142,142,0,0,0-100-40.92,143.51,143.51,0,0,0-123.84,71.67l-16.74,29-5.49-33c-3.82-22.93-3.07-44.71,2.09-61.33,2.61-8.42,6.19-20,7.91-31.83l2-13.56-2-9.36a30.26,30.26,0,0,0-2.2-6.66c-5.34-11.16-16.71-16.37-23-18.48l-22.39-7.5L69.41,79.92c-10.81,4.65-20.15,10-25,14.21C37,100.71,37,102.35,37,106.31c0,4.64,1.52,18,5.58,34.18,4.94,19.61,7.77,53.18,3.64,79.4-1.11,7.06-3.39,19.37-6,33.62-5.38,29-12.06,65-14,83.81-4,38.43-1.7,60.32,1.42,83,3.6,26.06,6.95,32.2,8,33.53,1.19.87,8.45,4.6,46.28,5.45,1.54,0,3.1,0,4.67,0,15,0,30.69-1.45,37.13-2.84,1.49-.32,9-2.24,10.24-8.41.77-3.82,2.8-24,5-53.76l2.22-29.69,19,22.93a144.37,144.37,0,0,0,24,23l11.29,8.55-10.28,9.74a25.61,25.61,0,0,0-8,16.84l-.88,12.64-12.57-1.56a7.18,7.18,0,0,0-6.87,11.06,7.19,7.19,0,0,0,6,3.25,7.11,7.11,0,0,0,3.9-1.17,7.23,7.23,0,0,0,1.7-1.57l7.85-9.91,9.49,8.36a25.65,25.65,0,0,0,38.31-5l6.1-9.06,9.59,5.22a20.17,20.17,0,0,0,9.75,2.47,20.59,20.59,0,0,0,4.16-.42Zm181.35-180ZM149.52,165.88l-.37,1.21A80.16,80.16,0,0,0,146,185.2a167.62,167.62,0,0,1,15.73-15.33c-.43,0-.86.05-1.29.05h-1A15.94,15.94,0,0,1,149.52,165.88Zm9.13,3.92h0Zm-9.49-53.65,5.25,5.15a46.42,46.42,0,0,1,5.89,7,46.1,46.1,0,0,1,12.08-12.14,46.09,46.09,0,0,1-12.08-12.14,46.5,46.5,0,0,1-6.15,7.28Zm12.69-53.58h0ZM75.39,58l23.07,2.5,2.57-.78V38.91H90.84V35.14L75.39,38.25Z"/><path class="cls-1" d="M160.46,50.38a20.52,20.52,0,0,1,20.49,20.49,3.5,3.5,0,0,0,3.5,3.5h.19a3.5,3.5,0,0,0,3.5-3.5,20.52,20.52,0,0,1,20.49-20.49,3.5,3.5,0,0,0,3.5-3.5v0a3.5,3.5,0,0,0-3.5-3.5,20.52,20.52,0,0,1-20.49-20.49,3.5,3.5,0,0,0-3.5-3.5h-.19a3.5,3.5,0,0,0-3.5,3.5,20.52,20.52,0,0,1-20.49,20.49,3.5,3.5,0,0,0-3.5,3.5v0A3.5,3.5,0,0,0,160.46,50.38Z"/><path class="cls-1" d="M184.64,86.38l-1,0a15.52,15.52,0,0,1-14.65-15.48,8.5,8.5,0,0,0-8.49-8.49,15.52,15.52,0,0,1-15.42-14L145,48V45.7l.08-.38a15.52,15.52,0,0,1,15.42-14,8.5,8.5,0,0,0,8.49-8.49A15.52,15.52,0,0,1,183.58,7.38l.13,0h.74l1,0a15.52,15.52,0,0,1,14.65,15.48,8.5,8.5,0,0,0,8.49,8.49,15.52,15.52,0,0,1,15.42,14l.08.37V48l-.08.38a15.52,15.52,0,0,1-15.42,14,8.5,8.5,0,0,0-8.49,8.49,15.52,15.52,0,0,1-14.63,15.48l-.13,0h-.74Zm-2.31-39.51q1.16,1.06,2.21,2.22,1.05-1.16,2.21-2.22-1.16-1.06-2.21-2.22Q183.49,45.81,182.33,46.87Z"/><path class="cls-1" d="M150.68,324.85c0,29.46-7,116.28-9,126s-11.53,13.58-16.38,14.63c-7.3,1.58-26.21,3.35-43.67,3-38.72-.86-49.22-4.75-52.12-8.17s-6.41-12.39-9.9-37.71-5.37-47-1.46-84.9c3-28.59,16.8-97,20.09-117.86,4-25.28,1-58.27-3.49-76.19C30.54,126.75,29,112.73,29,107.45s0-9.22,10.19-18.19S69.43,72.39,69.43,72.39V66.07H107v6.32s22.93,4.68,32.1,23.86.65,48.25-5.24,67.24-5.46,46.07,1.3,72.57S150.68,295.39,150.68,324.85Z"/><path class="cls-1" d="M112.23,62.79v2.33a1,1,0,0,1-1,.95h-46a1,1,0,0,1-1-.95V62.79a1,1,0,0,1,1-.94h46A1,1,0,0,1,112.23,62.79Z"/><path class="cls-1" d="M109,36V61.85H98.84V32h5.79A4.2,4.2,0,0,1,109,36Z"/><path class="cls-1" d="M100.59,22a2.45,2.45,0,0,1-2.45,2.46h-27a7.28,7.28,0,0,1,7.26-7.26H95.78A4.82,4.82,0,0,1,100.59,22Z"/><polygon class="cls-1" points="98.84 60.79 98.84 61.85 88.94 61.85 88.94 60.79 88.94 32.05 98.84 32.05 98.84 60.79"/><polygon class="cls-1" points="98.84 24.41 98.84 32.05 88.94 32.05 77.98 32.05 77.58 32.05 77.58 24.41 86.9 24.41 89.53 24.41 98.14 24.41 98.84 24.41"/><polygon class="cls-1" points="88.94 60.79 88.94 61.85 77.98 61.85 77.98 60.79 77.98 32.05 88.94 32.05 88.94 60.79"/><path class="cls-1" d="M78,60.79v1.06H67.39V36a4.21,4.21,0,0,1,4.39-4H78Z"/><path class="cls-2" d="M77.58,24.41h-6.4a7.28,7.28,0,0,1,7.26-7.26H95.78A4.82,4.82,0,0,1,100.59,22a2.45,2.45,0,0,1-2.45,2.46"/><path class="cls-2" d="M107,66.07v6.32s22.93,4.68,32.1,23.86.65,48.25-5.24,67.24-5.46,46.07,1.3,72.57,15.51,59.33,15.51,88.79-7,116.28-9,126-11.53,13.58-16.38,14.63c-7.3,1.58-26.21,3.35-43.67,3-38.72-.86-49.22-4.75-52.12-8.17s-6.41-12.39-9.9-37.71-5.37-47-1.46-84.9c3-28.59,16.8-97,20.09-117.86,4-25.28,1-58.27-3.49-76.19C30.54,126.75,29,112.73,29,107.45s0-9.22,10.19-18.19S69.43,72.39,69.43,72.39V66.07h-4.2a1,1,0,0,1-1-.95V62.79a1,1,0,0,1,1-.94h2.16V36a4.21,4.21,0,0,1,4.39-4h5.8V24.41H98.84V32h5.79A4.2,4.2,0,0,1,109,36V61.85h2.16a1,1,0,0,1,1,.94v2.33a1,1,0,0,1-1,.95Z"/><polyline class="cls-2" points="109.03 61.85 98.84 61.85 88.94 61.85 77.98 61.85 67.39 61.85"/><line class="cls-2" x1="69.43" y1="66.07" x2="106.99" y2="66.07"/><polyline class="cls-2" points="77.58 32.05 77.98 32.05 88.94 32.05 98.84 32.05"/><line class="cls-3" x1="77.98" y1="32.05" x2="77.98" y2="60.79"/><line class="cls-3" x1="88.94" y1="32.05" x2="88.94" y2="60.79"/><line class="cls-3" x1="98.84" y1="32.05" x2="98.84" y2="60.79"/><path class="cls-2" d="M36.32,326.7c-2.15,15.07-3.11,25.69-3.55,35-2.53,52.16,9.95,63.63,21.74,67.2"/><path class="cls-2" d="M107.74,117.36S78,101.63,61,114.68s-4.82,18.13-4.15,71c.38,29.82-10,79.09-15.68,115.51"/><path class="cls-2" d="M98.67,436.25c15,.64,23.1-.48,29.3-6.86s7.07-30,7.31-40.65"/><path class="cls-2" d="M117,188.49c-2,22.37,3.45,42.32,11.67,63.5"/><path class="cls-1" d="M270.2,146.8a150.9,150.9,0,1,1-150.9,150.9A150.9,150.9,0,0,1,270.2,146.8ZM372.6,299.94A102.4,102.4,0,1,0,270.2,402.33,102.4,102.4,0,0,0,372.6,299.94Z"/><circle class="cls-1" cx="270.2" cy="299.94" r="102.4"/><circle class="cls-2" cx="270.2" cy="297.7" r="150.9"/><circle class="cls-2" cx="270.2" cy="299.94" r="102.4"/><path class="cls-2" d="M187.25,277A83.8,83.8,0,0,1,268,215.44"/><path class="cls-2" d="M222.48,369.5a84,84,0,0,1-32.39-39.57"/><path class="cls-1" d="M439.09,293c36,25.11,45.29,62.84,40,106.76-2.31,19.26-8.11,37.52-13.33,55.93-3.38,11.94-6.92,14.49-18.53,14.49-33.91,0-67.83-.18-101.74.13-7.71.07-12.45-2.37-15.15-10.71-10.32-32-14.09-64.59-9.77-98.46,4.42-34.65,16.16-65.54,36.43-92.58,10.14-13.52,17.91-28,16.76-46.31-.34-5.49-1.65-10.94-1.62-16.41,0-8.16,3.55-11.82,9.5-11.4a17.27,17.27,0,0,1,3.68.68c12.75,3.66,25.61,5.26,38-1.81l1.54-.86a15,15,0,0,0,4.42,5.08c5.3,4,3.43,12,1,17.88-1.62,3.85-4.84,6.91-7.6,10.67,9,10.37,6.92,21.06,1.54,31.83,3.7,5.13,7.36,10.14,6.27,17.4C429.24,283.45,432.14,288.14,439.09,293Z"/><path class="cls-1" d="M467.59,111.17c5.47-.11,7.52,1.87,7.16,7.84s-.08,12.24-.08,19.28c-3.83,0-6.79,0-9.73,0a119.94,119.94,0,0,0-16,.86q-3.07.38-6.14,1a32.37,32.37,0,0,0-25.64,25.18l-.13,1.94c-1.22-.08-2.65-.1-4.3-.1-6.78,0-13.54.54-20.37-.72-.64-.12-1.24-.2-1.81-.26l.07-.86c-.84-10-7.75-12.5-15-15.63-7.58-3.3-18.47-.38-25.73-4.62,8.7-16.43,13.41-26.85,30.42-31.84,13.11-3.84,28.45-4,47.4-3.52C441.13,110,454.3,111.45,467.59,111.17Z"/><path class="cls-1" d="M465.76,182.71c2.35,3.64,6,7.12,3.59,12.5l-1.7.32c-8-1.09-11.76-7.9-16.83-12.91-9.42-9.3-17.94-22.26-23.39-34.47l-.25-.28a32.57,32.57,0,0,1,15.62-7.75q3.07-.6,6.14-1l.07.54C452.13,154.71,457.63,170.06,465.76,182.71Z"/><path class="cls-1" d="M424.89,192.42l-1.54.86c-12.4,7.08-25.27,5.47-38,1.81a17.27,17.27,0,0,0-3.68-.68l.12-2.1c1.47-5.39.75-10.92.87-16.4.16-7.51,2-10.35,7.91-9.75.56.06,1.17.14,1.81.26,6.83,1.26,13.59.71,20.37.72,1.65,0,3.07,0,4.3.1,5.48.37,6.91,2.16,6.43,10.61C423.18,182.93,422.56,188,424.89,192.42Z"/><path class="cls-2" d="M423.35,193.29c-12.4,7.08-25.27,5.47-38,1.81a17.27,17.27,0,0,0-3.68-.68c-6-.42-9.45,3.25-9.5,11.4,0,5.47,1.27,10.92,1.62,16.41,1.15,18.3-6.62,32.8-16.76,46.31-20.27,27-32,57.93-36.43,92.58-4.32,33.86-.55,66.42,9.77,98.46,2.69,8.34,7.44,10.78,15.15,10.71,33.91-.31,67.83-.13,101.74-.13,11.61,0,15.15-2.55,18.53-14.49,5.23-18.41,11-36.67,13.33-55.93,5.27-43.92-4-81.65-40-106.76-7-4.84-9.84-9.52-8.61-17.68,1.09-7.27-2.56-12.27-6.27-17.4,5.38-10.77,7.48-21.46-1.54-31.83,2.75-3.76,6-6.82,7.6-10.67,2.48-5.92,4.35-13.86-1-17.88a15,15,0,0,1-4.42-5.08c-2.32-4.47-1.71-9.49-1.42-14.57.47-8.45-1-10.23-6.43-10.61-1.22-.08-2.65-.1-4.3-.1-6.78,0-13.54.54-20.37-.72-.64-.12-1.24-.2-1.81-.26-5.95-.6-7.75,2.25-7.91,9.75-.12,5.47.6,11-.87,16.4"/><path class="cls-2" d="M349.92,145.05c8.7-16.43,13.41-26.85,30.42-31.84,13.11-3.84,28.45-4,47.4-3.52,13.39.34,26.56,1.76,39.84,1.48,5.47-.11,7.52,1.87,7.16,7.84s-.08,12.24-.08,19.28c-3.83,0-6.79,0-9.73,0a119.94,119.94,0,0,0-16,.86q-3.07.38-6.14,1a32.37,32.37,0,0,0-25.64,25.18"/><path class="cls-2" d="M449,139.69c3.13,15,8.62,30.37,16.76,43,2.35,3.64,6,7.12,3.59,12.5"/><path class="cls-2" d="M427.43,148.16c5.46,12.21,14,25.17,23.39,34.47,5.07,5,8.82,11.82,16.83,12.91l.79.09"/><path class="cls-2" d="M349.92,145.05c7.25,4.24,18.15,1.32,25.73,4.62,7.22,3.13,14.13,5.65,15,15.63"/><path class="cls-2" d="M455.2,113.22V135.4"/><path class="cls-2" d="M339.35,377.33s1-21.3,21.49-32.3,55.48-21.49,65.48-23.49,35,2.5,35,31-3.5,71.48-11.5,89"/><path class="cls-2" d="M339.35,410.81s2,27.7,6.5,34.2,9.5,7.28,28,7.28,31.74-.75,31.74-.75"/><path class="cls-2" d="M382.34,250.56c0,8.68-10,21.13-20,33.13S345.85,311,345.85,327.54"/><circle class="cls-1" cx="202.8" cy="448.63" r="33.71"/><circle class="cls-2" cx="202.8" cy="448.63" r="33.71"/><path class="cls-4" d="M179.64,442.53a25.37,25.37,0,0,1,24.45-18.64"/><path class="cls-4" d="M190.3,470.53a25.45,25.45,0,0,1-9.8-12"/><path class="cls-4" d="M178.54,451a25.49,25.49,0,0,1-.08-3.58"/><circle class="cls-1" cx="221.69" cy="410.67" r="25.27"/><circle class="cls-2" cx="221.69" cy="410.67" r="25.27"/><path class="cls-4" d="M205.15,406.21A17.92,17.92,0,0,1,222.43,393"/><path class="cls-4" d="M212.69,426a18,18,0,0,1-6.93-8.46"/><path class="cls-4" d="M204.37,412.18a18.05,18.05,0,0,1-.05-2.53"/><circle class="cls-1" cx="278.69" cy="466.9" r="19.3"/><circle class="cls-2" cx="278.69" cy="466.9" r="19.3"/><path class="cls-4" d="M274.24,476.11a15.84,15.84,0,0,1-6.11-7.46"/><path class="cls-2" d="M262.37,467.84a15.87,15.87,0,0,1,0-2.23"/><circle class="cls-1" cx="162.86" cy="465.02" r="15.18" transform="translate(-228.02 165.06) rotate(-33.2)"/><circle class="cls-2" cx="162.86" cy="465.02" r="15.18" transform="translate(-228.02 165.06) rotate(-33.2)"/><path class="cls-4" d="M154.77,466.38a10.21,10.21,0,0,1,1.87-5.93"/><path class="cls-4" d="M158.75,458.13a10.16,10.16,0,0,1,1.18-.81"/><circle class="cls-1" cx="304.94" cy="434.25" r="15.18" transform="translate(-187.99 237.83) rotate(-33.2)"/><circle class="cls-2" cx="304.94" cy="434.25" r="15.18" transform="translate(-187.99 237.83) rotate(-33.2)"/><path class="cls-4" d="M297.48,435.57a9,9,0,0,1,1.65-5.24"/><path class="cls-4" d="M303.91,427.07a8.88,8.88,0,0,1,1.23-.33"/><circle class="cls-1" cx="249.59" cy="441.08" r="28.5"/><circle class="cls-2" cx="249.59" cy="441.08" r="28.5"/><path class="cls-4" d="M229.27,435.65a20.45,20.45,0,0,1,19.72-15"/><path class="cls-4" d="M228.38,442.47a20.84,20.84,0,0,1-.06-2.89"/><path class="cls-1" d="M208.63,48v0a24,24,0,0,0-24,24h-.19a24,24,0,0,0-24-24v0a24,24,0,0,0,24-24h.19A24,24,0,0,0,208.63,48Z"/><path class="cls-5" d="M208.63,48a24,24,0,0,1-24-24"/><path class="cls-5" d="M184.45,24a24,24,0,0,1-24,24"/><path class="cls-5" d="M160.46,48a24,24,0,0,1,24,24"/><path class="cls-5" d="M184.64,72a24,24,0,0,1,24-24"/><path class="cls-1" d="M198.14,117.3v.06a37.7,37.7,0,0,0-37.71,37.71h-.29a37.71,37.71,0,0,0-37.71-37.71v-.06a37.71,37.71,0,0,0,37.71-37.71h.29A37.7,37.7,0,0,0,198.14,117.3Z"/><path class="cls-2" d="M198.14,117.3a37.7,37.7,0,0,1-37.71-37.71"/><path class="cls-2" d="M160.14,79.59a37.71,37.71,0,0,1-37.71,37.71"/><path class="cls-2" d="M122.43,117.36a37.71,37.71,0,0,1,37.71,37.71"/><path class="cls-2" d="M160.44,155.07a37.7,37.7,0,0,1,37.71-37.71"/></g></g></svg>