<svg xmlns="http://www.w3.org/2000/svg" viewBox="0 0 521.98 479.65"><defs><style>.cls-1,.cls-3{fill:#fff;}.cls-2,.cls-5{fill:none;}.cls-2,.cls-3,.cls-5{stroke:#01a0c6;}.cls-2,.cls-3{stroke-linecap:round;stroke-linejoin:round;stroke-width:8px;}.cls-4{fill:#01a0c6;}.cls-5{stroke-miterlimit:10;stroke-width:3px;}</style></defs><title>Panaderia y Pasteleria</title><g id="Layer_2" data-name="Layer 2"><g id="Layer_1-2" data-name="Layer 1"><path class="cls-1" d="M509.76,196.94l-35.71-40.31V126.12h-79V12.22H129.81V294.08l-1-2.76c-3.4-9.34-6.93-19-10.3-28.55-3.45-9.77-8.85-14.85-17-16-4.15-.6-5.19-4.2-5.53-5.39l-.31-1.06c-3.24-11.21-6.59-22.82-10-34.19a15.81,15.81,0,0,1,1-12.38c9.57-18.83,15-35.75,17-53.25A83.44,83.44,0,0,0,93.61,89.92c-7.34-13.4-17.7-20.06-30.78-19.77a68.54,68.54,0,0,0-35.7,10.59c-11,6.92-15.8,17.8-14.78,33.23,1.52,22.82,11.18,42.36,29.55,59.72a151.74,151.74,0,0,0,24.77,19.41c.73.47,1.41.94,2,1.38a15.06,15.06,0,0,0,2.81,1.71c6.67,2.67,9.11,8.69,10.75,14.8,2.82,10.46,6,21.07,9,31,.75,2.52,1.22,5.77-1.91,8.48-5.75,5-7.73,11.86-5.85,20.49q2.88,13.3,5.8,26.61l1.28,1.14a8.39,8.39,0,0,0-7.13,6.42l-4.64,20.77L64.26,390.7l0,.72c-.69-.05-1.39-.08-2.09-.08a20.23,20.23,0,0,0-20.22,20.22,27.66,27.66,0,0,0,27.65,27.65H41.08A28.22,28.22,0,0,0,69.3,467.43H223a28.22,28.22,0,0,0,28.22-28.22H236.15v-.13L231.5,416h74.36c0,.24-.1.48-.14.72-.74,4.29-3.77,8.79-.09,13.19v.95c0,12.44,8.09,21.53,20.76,21.6q75.49.39,151,0c13.84-.08,18.7-8.37,19.67-22.51a66.75,66.75,0,0,0-.27-12.63h13Z"/><path class="cls-1" d="M223,479.65H69.3a40.48,40.48,0,0,1-40.44-40.44,12.2,12.2,0,0,1,5-9.86,39.71,39.71,0,0,1-4.17-17.79,32.48,32.48,0,0,1,24.41-31.44l17.37-77.68,0-.11a20.52,20.52,0,0,1,4.39-8.66q-2.2-10.07-4.38-20.14c-2.55-11.74.08-22.27,7.41-30-2.81-9.34-5.76-19.31-8.46-29.33-1.58-5.88-2.78-6.36-3.5-6.64a25,25,0,0,1-5.24-3l-.08-.06c-.45-.32-.94-.66-1.46-1a164.27,164.27,0,0,1-26.68-20.9C12.81,163,1.9,140.82.16,114.78c-1.34-20,5.54-35,20.45-44.37a80.57,80.57,0,0,1,42-12.47c12.36-.27,29.65,4,41.75,26.11a95.43,95.43,0,0,1,11.53,57.83c-2.2,19-8,37.22-18.25,57.39a3.74,3.74,0,0,0-.2,3.34c3.13,10.5,6.23,21.2,9.22,31.54l.36,1.24a29.73,29.73,0,0,1,10.62,5.06V12.22A12.22,12.22,0,0,1,129.81,0H395.07a12.22,12.22,0,0,1,12.22,12.22V113.9h66.77a12.22,12.22,0,0,1,12.22,12.22V152l32.63,36.84a12.22,12.22,0,0,1,3.07,8.1V417.29a12.22,12.22,0,0,1-12.22,12.22h-.44q0,.63-.08,1.25c-1.92,27.86-18.35,33.8-31.79,33.89-48.21.29-97.64.29-151.13,0-18.22-.1-31.66-13-32.83-31.16a18.43,18.43,0,0,1-1.65-5.3H256.54a12.22,12.22,0,0,1,6.91,11A40.43,40.43,0,0,1,223,479.65ZM59,451.43a15.93,15.93,0,0,0,10.33,3.79H223a15.89,15.89,0,0,0,10.64-4,12.23,12.23,0,0,1-9.6-10.35l-4.52-22.41a12.22,12.22,0,0,1,12-14.63h74.36a12.22,12.22,0,0,1,12,14.45c0,.18-.07.35-.1.52l0,.11a38.32,38.32,0,0,1-1.18,4.64l-.19.62a12.21,12.21,0,0,1,1.46,5.79v.94c0,3.5,1.1,9.34,8.61,9.39,53.39.28,102.74.27,150.85,0,4.38,0,6.79,0,7.56-11.13a54.88,54.88,0,0,0-.21-10.32,12.22,12.22,0,0,1,12.13-13.69h.76V201.58l-32.63-36.84a12.22,12.22,0,0,1-3.07-8.1v-18.3H395.07a12.22,12.22,0,0,1-12.22-12.22V24.43H142V294.08a12.22,12.22,0,0,1-23.69,4.2l-1.65-4.52c-3.21-8.8-6.52-17.9-9.7-26.92-2.59-7.33-5.27-7.72-7.22-8-.38-.06-.82-.13-1.31-.24-.4.4-.78.76-1.15,1.08-1.55,1.34-3.1,3.22-1.92,8.67q2.51,11.6,5,23.19a12.22,12.22,0,0,1-5.64,18.59L76.4,392.4A12.22,12.22,0,0,1,63.27,403.6c-.34,0-.72,0-1.13,0a8,8,0,0,0-8,8A15.44,15.44,0,0,0,69.57,427a12.22,12.22,0,0,1,0,24.43ZM79.6,245.76Zm-3-60.71.69.3c8-16.36,12.58-31.13,14.34-46.27A71.45,71.45,0,0,0,82.89,95.8C76.17,83.52,68.39,82.26,63.1,82.37a56.5,56.5,0,0,0-29.44,8.7c-5,3.17-10,8.27-9.11,22.08,1.31,19.61,9.73,36.51,25.75,51.65A139.83,139.83,0,0,0,73,182.67l.2.13c1,.61,1.8,1.2,2.5,1.7Zm-.57-.24.1,0Z"/><polygon class="cls-1" points="324.99 367.02 324.99 15.07 364.9 60.15 395.07 15.07 395.07 418.84 129.81 418.84 129.81 367.02 324.99 367.02"/><polygon class="cls-1" points="395.07 15.07 364.9 60.15 324.99 15.07 395.07 15.07"/><path class="cls-1" d="M233,253.66c3.06-.43,5.33-.9,7.61-1,12.52-.74,27-14.16,27.54-28.18.16-4.51-.71-5.88-5.37-7.2a10.73,10.73,0,0,0-3.83-.42l-.07-.76c1.32-5,5.53-8.36,7.61-12.94,4.41-9.65,2.75-13.66-6.84-16.74l-2.18-1c5.49-5.74,9.58-12.57,10.55-18.81s-2.54-11-8.32-9.68l-.71.17-.1-.37c2.18-6.76,8.19-11.6,9.18-19,1.21-9-.69-11.26-9.16-9.05-4.95,1.29-9.66,3.47-14.48,5.24l-.6-.12a13.2,13.2,0,0,0,.47-2.93c.61-11.93-.25-23.69-10.17-33-7.76,2.88-10.21,10-11.6,17.06-1.31,6.56-1.62,12.94.06,18.71l-1,.27c-4.81-1.77-9.53-3.95-14.48-5.24-8.46-2.21-10.48,0-9.13,9.05a25.32,25.32,0,0,0,3.91,9.84c1.88,2.93,4.28,5.51,5.2,9l-.71.2a5,5,0,0,1-.86.47c-2.93,1.3-7.41.51-8,4.13-.94,5.46,1.08,11.14,3.72,15.86a34,34,0,0,0,7,8.73l-1,.48c-1.27.51-2.54,1.47-3.81,1.45-5.11-.12-5.87,2.24-5.52,6.94.38,5.16,2.45,9.45,4.86,13.62,1.48,2.55,3.81,4.61,4.46,7.67l-.07.28c-.24-.07-.47-.12-.71-.16-5.51-1.06-9,3-8.36,9,.81,8.35,5.12,14.28,11.24,20,7,6.5,15.32,7.43,23.78,8.45ZM325,15.07V367H129.81V15.07Z"/><path class="cls-1" d="M262.75,217.24c4.65,1.32,5.53,2.69,5.37,7.2-.51,14-15,27.44-27.54,28.18-2.28.14-4.55.61-7.61,1v-27c6.07,0,12.17-2.29,18.4-6.57,2.09-1.44,4.48-3,7.54-3.25A10.73,10.73,0,0,1,262.75,217.24Z"/><path class="cls-1" d="M258.87,128.64c8.47-2.21,10.37,0,9.16,9.05-1,7.41-7,12.26-9.18,19l.1.37a31.12,31.12,0,0,0-10,4.89c-5.28,3.75-10.59,5.58-15.93,5.56,0-4.62,0-9.24,0-13.86,0-2-.38-4.15.42-6a5.13,5.13,0,0,1,1.11-1.6c3.77-3.66,7.88-7.31,9.28-12.32l.6.12C249.21,132.11,253.93,129.93,258.87,128.64Z"/><path class="cls-1" d="M259.66,156.92c5.78-1.3,9.31,3.3,8.32,9.68s-5.06,13.07-10.55,18.81c-6.62,6.92-15.29,12.26-22.94,13.09a9.14,9.14,0,0,1-1.51,0q0-15.51,0-31c5.34,0,10.65-1.81,15.93-5.56a31.12,31.12,0,0,1,10-4.89Z"/><path class="cls-1" d="M259.61,186.39c9.59,3.08,11.25,7.09,6.84,16.74-2.08,4.58-6.28,7.91-7.61,12.94l.07.76c-3.06.23-5.45,1.81-7.54,3.25-6.23,4.27-12.34,6.52-18.4,6.57v-28.1a9.14,9.14,0,0,0,1.51,0c7.66-.83,16.32-6.17,22.94-13.09Z"/><path class="cls-1" d="M234.1,97.84c9.92,9.3,10.77,21.06,10.17,33a13.2,13.2,0,0,1-.47,2.93c-1.4,5-5.5,8.66-9.28,12.32a5.13,5.13,0,0,0-1.11,1.6l-.42-.1a25.32,25.32,0,0,1-10.42-14c-1.68-5.77-1.37-12.15-.06-18.71C223.9,107.88,226.34,100.71,234.1,97.84Z"/><path class="cls-1" d="M207,156.51c-.91-3.47-3.32-6.05-5.2-9a25.32,25.32,0,0,1-3.91-9.84c-1.35-9,.67-11.26,9.13-9.05,4.95,1.29,9.67,3.47,14.48,5.24l1-.27a25.32,25.32,0,0,0,10.42,14l.42.1c-.8,1.85-.42,4-.42,6,0,4.62,0,9.24,0,13.86-5.31,0-10.66-1.86-16-5.44-2.81-1.88-6.05-3.09-9.09-4.62l-2.39-.28a5,5,0,0,0,.86-.47Z"/><path class="cls-1" d="M233,167.54q0,15.5,0,31a11.5,11.5,0,0,1-3.78-.79c-7.65-3-15.14-6.45-21.06-11.84a34,34,0,0,1-7-8.73c-2.63-4.72-4.65-10.4-3.72-15.86.62-3.62,5.1-2.83,8-4.13l2.39.28c3,1.53,6.28,2.74,9.09,4.62C222.33,165.67,227.68,167.52,233,167.54Z"/><path class="cls-1" d="M233,226.64v27c-8.46-1-16.79-2-23.78-8.45-6.12-5.7-10.42-11.64-11.24-20-.59-6,2.85-10.07,8.36-9,.24,0,.47.09.71.16a21.24,21.24,0,0,1,7.62,3.6C220.82,224.53,226.89,226.7,233,226.64Z"/><path class="cls-1" d="M233,226v.68c-6.09.06-12.16-2.11-18.32-6.69a21.24,21.24,0,0,0-7.62-3.6l.07-.28c-.66-3.06-3-5.12-4.46-7.67-2.41-4.17-4.48-8.46-4.86-13.62-.35-4.7.41-7.06,5.52-6.94,1.26,0,2.54-.94,3.81-1.45l1-.48c5.93,5.39,13.42,8.8,21.06,11.84a11.5,11.5,0,0,0,3.78.79Z"/><path class="cls-2" d="M233,253.64v-55.1q0-15.51,0-31c0-4.62,0-9.24,0-13.86,0-2-.38-4.15.42-6a5.13,5.13,0,0,1,1.11-1.6c3.77-3.66,7.88-7.31,9.28-12.32a13.2,13.2,0,0,0,.47-2.93c.61-11.93-.25-23.69-10.17-33-7.76,2.88-10.21,10-11.6,17.06-1.31,6.56-1.62,12.94.06,18.71a25.32,25.32,0,0,0,10.42,14"/><path class="cls-2" d="M233,288.36V253.64c-8.46-1-16.79-2-23.78-8.45-6.12-5.7-10.42-11.64-11.24-20-.59-6,2.85-10.07,8.36-9,.24,0,.47.09.71.16a21.24,21.24,0,0,1,7.62,3.6c6.16,4.58,12.23,6.75,18.32,6.69s12.17-2.29,18.4-6.57c2.09-1.44,4.48-3,7.54-3.25a10.73,10.73,0,0,1,3.83.42c4.65,1.32,5.53,2.69,5.37,7.2-.51,14-15,27.44-27.54,28.18-2.28.14-4.55.61-7.61,1"/><path class="cls-2" d="M206.34,156.71a5,5,0,0,1-.86.47c-2.93,1.3-7.41.51-8,4.13-.94,5.46,1.08,11.14,3.72,15.86a34,34,0,0,0,7,8.73c5.93,5.39,13.42,8.8,21.06,11.84a11.5,11.5,0,0,0,3.78.79,9.14,9.14,0,0,0,1.51,0c7.66-.83,16.32-6.17,22.94-13.09,5.49-5.74,9.58-12.57,10.55-18.81s-2.54-11-8.32-9.68l-.71.17a31.12,31.12,0,0,0-10,4.89c-5.28,3.75-10.59,5.58-15.93,5.56s-10.66-1.86-16-5.44c-2.81-1.88-6.05-3.09-9.09-4.62"/><path class="cls-2" d="M258.85,156.71c2.18-6.76,8.19-11.6,9.18-19,1.21-9-.69-11.26-9.16-9.05-4.95,1.29-9.66,3.47-14.48,5.24"/><path class="cls-2" d="M221.56,133.88c-4.81-1.77-9.53-3.95-14.48-5.24-8.46-2.21-10.48,0-9.13,9.05a25.32,25.32,0,0,0,3.91,9.84c1.88,2.93,4.28,5.51,5.2,9a1.81,1.81,0,0,1,.06.2"/><path class="cls-2" d="M259.61,186.39c9.59,3.08,11.25,7.09,6.84,16.74-2.08,4.58-6.28,7.91-7.61,12.94"/><path class="cls-2" d="M207.11,186.39c-1.27.51-2.54,1.47-3.81,1.45-5.11-.12-5.87,2.24-5.52,6.94.38,5.16,2.45,9.45,4.86,13.62,1.48,2.55,3.81,4.61,4.46,7.67"/><polygon class="cls-2" points="395.07 15.07 395.07 418.84 129.81 418.84 129.81 367.02 129.81 15.07 324.99 15.07 395.07 15.07"/><polyline class="cls-2" points="129.68 367.02 129.81 367.02 324.99 367.02 387.74 367.02"/><polyline class="cls-2" points="324.99 412.85 324.99 367.02 324.99 15.07 364.9 60.15 395.07 15.07"/><polyline class="cls-3" points="148.93 109.4 148.93 33.15 204.62 33.15"/><line class="cls-3" x1="148.93" y1="172.51" x2="148.93" y2="134.25"/><path class="cls-4" d="M92.61,89.77a83.44,83.44,0,0,1,10.11,50.56c-2,17.5-7.43,34.43-17,53.25a15.81,15.81,0,0,0-1,12.38c3.39,11.37,6.74,23,10,34.19l.31,1.06c.35,1.19,1.39,4.79,5.53,5.39,8.15,1.18,13.54,6.26,17,16,3.37,9.55,6.89,19.21,10.3,28.55q2.41,6.58,4.79,13.16,1.88,5.17,3.76,10.34c1.38,3.77,2.78,7.62,4.17,11.49l-6.47-3.55c-3.18-8.8-7.36-20.27-11.23-30.92-4.42-12.16-8.46-23.27-10.22-28.15-2-5.69-6-9.85-10.65-11.14-4.3-1.21-8.6.16-11.82,3.76s-4.1,8.29-2.87,13.91c1.71,7.82,5.21,21.79,7.27,30.79l-6.3-3.47q-2.91-13.3-5.8-26.61c-1.87-8.63.1-15.51,5.85-20.49,3.13-2.71,2.66-6,1.91-8.48-3-9.91-6.14-20.52-9-31-1.65-6.11-4.09-12.13-10.75-14.8a15.06,15.06,0,0,1-2.81-1.71c-.62-.44-1.29-.91-2-1.38A151.74,151.74,0,0,1,40.9,173.53c-18.37-17.36-28-36.9-29.55-59.72-1-15.43,3.8-26.3,14.78-33.23A68.54,68.54,0,0,1,61.83,70C74.91,69.72,85.27,76.38,92.61,89.77Zm2.71,19a81.71,81.71,0,0,0-6.53-15.9C83,82.14,74.87,76.29,64.65,75.55l-.47-.07c-1-.16-3.51-.59-4.75,2s.39,4.54,1,5.34c.09.13.19.25.25.37,6.4,11.71,10.41,24.31,14.47,39.63,3.83,14.49,6.23,30.62,7.31,49.3,0,.53.09,1.06.18,1.86,0,.42.11.92.18,1.57L83.95,186l3.82-9.23a164.78,164.78,0,0,0,7.58-23.21C99.37,137.56,99.37,122.8,95.32,108.82ZM75.39,149.66A227.67,227.67,0,0,0,61.42,96,57.66,57.66,0,0,0,53.9,82c-2.42-3.23-5.22-4.48-8.32-3.72-3.31.82-5.33,3.53-5.67,7.63-.61,7.14.68,14,2.17,21,5.2,24.57,14.57,48.19,28.6,72.22l.13.22a5.72,5.72,0,0,0,4,3.22l2.9.6v-3.27A242,242,0,0,0,75.39,149.66Zm-5.45,39.78-5.08-9.72C58.52,167.6,51.92,154.62,47,141.06c-5.41-15-11.09-32.74-12.13-51.21a9.84,9.84,0,0,0-.33-2.15,4.37,4.37,0,0,0-1.81-2.59c-1.88-1.18-3.6,0-4.74.78-8.62,5.88-12.57,15.3-11.72,28C17.64,134.33,26.2,152,42.46,168a143.15,143.15,0,0,0,18.92,15.48Z"/><path class="cls-1" d="M88.78,92.92a81.71,81.71,0,0,1,6.53,15.9c4.06,14,4.05,28.74,0,44.73a164.78,164.78,0,0,1-7.58,23.21L83.95,186,82.8,175.53c-.07-.64-.13-1.15-.18-1.57-.1-.8-.15-1.33-.18-1.86-1.08-18.68-3.48-34.81-7.31-49.3-4.05-15.32-8.06-27.91-14.47-39.63-.07-.12-.16-.24-.25-.37-.59-.8-2.13-2.9-1-5.34s3.79-2.16,4.75-2l.47.07C74.87,76.29,83,82.14,88.78,92.92Z"/><path d="M142.78,332.36l-4.69,1.36c-1-2.65-2.35-6.52-4-11.11l6.47,3.55Z"/><path class="cls-1" d="M134.07,322.61,94.56,300.86c-2.06-9-5.56-23-7.27-30.79-1.23-5.62-.24-10.43,2.87-13.91s7.52-5,11.82-3.76c4.62,1.3,8.6,5.46,10.65,11.14,1.76,4.88,5.8,16,10.22,28.15C126.71,302.33,130.88,313.8,134.07,322.61Z"/><path class="cls-1" d="M61.42,96a227.67,227.67,0,0,1,14,53.62,242,242,0,0,1,2.32,30.28v3.27l-2.9-.6a5.72,5.72,0,0,1-4-3.22l-.13-.22c-14-24-23.4-47.65-28.6-72.22-1.5-7-2.78-13.9-2.17-21,.34-4.1,2.36-6.81,5.67-7.63,3.1-.76,5.9.49,8.32,3.72A57.66,57.66,0,0,1,61.42,96Z"/><path class="cls-1" d="M64.86,179.72l5.08,9.72-8.56-5.94A143.15,143.15,0,0,1,42.46,168c-16.25-16-24.82-33.7-26.19-54.17-.85-12.68,3.1-22.1,11.72-28,1.14-.78,2.87-2,4.74-.78a4.37,4.37,0,0,1,1.81,2.59,9.84,9.84,0,0,1,.33,2.15c1,18.47,6.72,36.25,12.13,51.21C51.92,154.62,58.52,167.6,64.86,179.72Z"/><path d="M88.26,297.39l6.3,3.47c.22,1,.43,1.86.61,2.69Z"/><path class="cls-5" d="M88.26,297.39q-2.91-13.3-5.8-26.61c-1.87-8.63.1-15.51,5.85-20.49,3.13-2.71,2.66-6,1.91-8.48-3-9.91-6.14-20.52-9-31-1.65-6.11-4.09-12.13-10.75-14.8a15.06,15.06,0,0,1-2.81-1.71c-.62-.44-1.29-.91-2-1.38A151.74,151.74,0,0,1,40.9,173.53c-18.37-17.36-28-36.9-29.55-59.72-1-15.43,3.8-26.3,14.78-33.23A68.54,68.54,0,0,1,61.83,70c13.08-.29,23.44,6.38,30.78,19.77a83.44,83.44,0,0,1,10.11,50.56c-2,17.5-7.43,34.43-17,53.25a15.81,15.81,0,0,0-1,12.38c3.39,11.37,6.74,23,10,34.19l.31,1.06c.35,1.19,1.39,4.79,5.53,5.39,8.15,1.18,13.54,6.26,17,16,3.37,9.55,6.89,19.21,10.3,28.55q2.41,6.58,4.79,13.16,1.88,5.17,3.76,10.34c1.38,3.77,2.78,7.62,4.17,11.49l2.24,6.2-4.69,1.36c-1-2.65-2.35-6.52-4-11.11-3.18-8.8-7.36-20.27-11.23-30.92-4.42-12.16-8.46-23.27-10.22-28.15-2-5.69-6-9.85-10.65-11.14-4.3-1.21-8.6.16-11.82,3.76s-4.1,8.29-2.87,13.91c1.71,7.82,5.21,21.79,7.27,30.79.22,1,.43,1.86.61,2.69Z"/><path class="cls-5" d="M87.76,176.76a164.78,164.78,0,0,0,7.58-23.21c4-16,4-30.75,0-44.73a81.71,81.71,0,0,0-6.53-15.9C83,82.14,74.87,76.29,64.65,75.55l-.47-.07c-1-.16-3.51-.59-4.75,2s.39,4.54,1,5.34c.09.13.19.25.25.37,6.4,11.71,10.41,24.31,14.47,39.63,3.83,14.49,6.23,30.62,7.31,49.3,0,.53.09,1.06.18,1.86,0,.42.11.92.18,1.57L83.95,186Z"/><path class="cls-5" d="M70.68,179.19l.13.22a5.72,5.72,0,0,0,4,3.22l2.9.6v-3.27a242,242,0,0,0-2.32-30.28A227.67,227.67,0,0,0,61.42,96,57.66,57.66,0,0,0,53.9,82c-2.42-3.23-5.22-4.48-8.32-3.72-3.31.82-5.33,3.53-5.67,7.63-.61,7.14.68,14,2.17,21C47.28,131.54,56.65,155.16,70.68,179.19Z"/><path class="cls-5" d="M42.46,168a143.15,143.15,0,0,0,18.92,15.48l8.56,5.94-5.08-9.72C58.52,167.6,51.92,154.62,47,141.06c-5.41-15-11.09-32.74-12.13-51.21a9.84,9.84,0,0,0-.33-2.15,4.37,4.37,0,0,0-1.81-2.59c-1.88-1.18-3.6,0-4.74.78-8.62,5.88-12.57,15.3-11.72,28C17.64,134.33,26.2,152,42.46,168Z"/><polyline class="cls-5" points="88.26 297.39 94.56 300.86 134.07 322.61 140.54 326.16 144.88 328.55"/><polygon class="cls-1" points="509.76 199.79 509.76 420.14 441.75 420.14 441.75 199.79 474.06 159.48 509.76 199.79"/><rect class="cls-1" x="356.26" y="128.97" width="117.8" height="30.51"/><polygon class="cls-1" points="474.06 159.48 441.75 199.79 325.61 199.79 356.26 159.48 474.06 159.48"/><rect class="cls-1" x="325.61" y="199.79" width="116.13" height="220.35"/><polyline class="cls-2" points="474.06 159.48 509.76 199.79 509.76 420.14 441.75 420.14"/><polyline class="cls-2" points="441.75 199.79 441.75 420.14 325.61 420.14 325.61 199.79"/><polyline class="cls-2" points="356.26 159.48 325.61 199.79 441.75 199.79 474.06 159.48"/><rect class="cls-2" x="356.26" y="128.97" width="117.8" height="30.51"/><path class="cls-1" d="M236.15,442.06h15.07A28.22,28.22,0,0,1,223,470.28H69.3a28.22,28.22,0,0,1-28.22-28.22H236.15Z"/><path class="cls-1" d="M236.15,441.93v.13H113.21a27.66,27.66,0,0,0,27.65-27.65,20.24,20.24,0,0,0-20.22-20.22A27.65,27.65,0,0,0,93,421.84v20.22h-3.2V421.84a27.65,27.65,0,0,0-25.56-27.57l0-.72,14.5-64.83h45.48a7.54,7.54,0,0,1,7.54,7.54v5.55a13.08,13.08,0,0,0,13.09,13.08h1.55a13.08,13.08,0,0,0,13.08-13.08v24.67a14.11,14.11,0,0,0,28.22,0V336.26a7.54,7.54,0,0,1,7.55-7.54h17.94l.12,0Z"/><path class="cls-1" d="M209.22,308.26l4.12,20.44-.12,0H195.28a7.54,7.54,0,0,0-7.55,7.54v30.22a14.11,14.11,0,0,1-28.22,0V341.81a13.08,13.08,0,0,1-13.08,13.08h-1.55a13.08,13.08,0,0,1-13.09-13.08v-5.55a7.54,7.54,0,0,0-7.54-7.54H78.77L83.41,308a8.4,8.4,0,0,1,8.18-6.49H201A8.41,8.41,0,0,1,209.22,308.26Z"/><path class="cls-1" d="M93,442.06V421.84a27.65,27.65,0,0,1,27.65-27.65,20.24,20.24,0,0,1,20.22,20.22,27.66,27.66,0,0,1-27.65,27.65Z"/><path class="cls-1" d="M89.79,442.06H69.57a27.66,27.66,0,0,1-27.65-27.65,20.23,20.23,0,0,1,20.22-20.22c.7,0,1.4,0,2.09.08a27.65,27.65,0,0,1,25.56,27.57Z"/><path class="cls-2" d="M236.15,441.93,213.34,328.7l-4.12-20.44a8.41,8.41,0,0,0-8.25-6.79H91.59A8.4,8.4,0,0,0,83.41,308l-4.64,20.77-14.5,64.83"/><path class="cls-2" d="M113.21,442.06h138A28.22,28.22,0,0,1,223,470.28H69.3a28.22,28.22,0,0,1-28.22-28.22H69.57"/><line class="cls-2" x1="89.79" y1="442.06" x2="92.99" y2="442.06"/><path class="cls-2" d="M113.21,442.06H93V421.84a27.65,27.65,0,0,1,27.65-27.65,20.24,20.24,0,0,1,20.22,20.22,27.66,27.66,0,0,1-27.65,27.65Z"/><path class="cls-2" d="M69.57,442.06H89.79V421.84a27.65,27.65,0,0,0-25.56-27.57c-.69-.05-1.39-.08-2.09-.08a20.23,20.23,0,0,0-20.22,20.22,27.66,27.66,0,0,0,27.65,27.65Z"/><line class="cls-2" x1="113.15" y1="420.9" x2="92.99" y2="442.06"/><line class="cls-2" x1="68.3" y1="419.83" x2="89.79" y2="442.06"/><path class="cls-2" d="M78.54,328.72h45.71a7.54,7.54,0,0,1,7.54,7.54v5.55a13.08,13.08,0,0,0,13.09,13.08h1.55a13.08,13.08,0,0,0,13.08-13.08v24.67a14.11,14.11,0,0,0,28.22,0V336.26a7.54,7.54,0,0,1,7.55-7.54h17.94"/><path class="cls-1" d="M460.33,374.37c23.57,12.11,38.72,29.39,36.72,58.4-1,14.14-5.83,22.42-19.67,22.51q-75.49.45-151,0c-12.68-.07-20.79-9.16-20.76-21.6v-.95c-3.67-4.4-.65-8.9.09-13.19,4.27-24.74,26.62-47.45,55.57-49.31,22-1.41,44.06-.24,66.1-1.18C438.2,368.61,450.15,369.15,460.33,374.37Z"/><path class="cls-2" d="M385.64,270.65c8.83,13,4.71,27.93-3.68,36.88-14.19,15.14-14.23,27.72-1,43.33"/><path class="cls-2" d="M355.44,271.59c7.64,13.73,5.65,26.17-5.72,36.74-10.55,9.81-12.77,31.08-.88,41.59"/><path class="cls-2" d="M417.73,271.59c8,13.78,5.82,26.17-5.7,36.75-11.23,10.31-11.92,31.68-.9,41.57"/><path class="cls-2" d="M305.63,433.7c0,12.44,8.09,21.53,20.76,21.6q75.49.39,151,0c13.84-.08,18.7-8.37,19.67-22.51,2-29-13.15-46.29-36.72-58.4-10.18-5.23-22.13-5.77-32.94-5.3-22,.95-44.06-.23-66.1,1.18-29,1.86-51.31,24.57-55.57,49.31-.74,4.29-3.77,8.79-.09,13.19"/><path class="cls-2" d="M457.56,431.81q-70.78,0-141.56.06c-3.13,0-6.46-1.12-9.43.88"/><path class="cls-2" d="M495.32,431.81H472.66"/><line class="cls-2" x1="362.25" y1="372.72" x2="362.25" y2="412.22"/><line class="cls-2" x1="397.09" y1="372.72" x2="397.09" y2="412.22"/><line class="cls-2" x1="431.94" y1="372.72" x2="431.94" y2="412.22"/><line class="cls-3" x1="475.75" y1="321.58" x2="475.75" y2="203.05"/></g></g></svg>