<svg xmlns="http://www.w3.org/2000/svg" viewBox="0 0 526.95 509.33"><defs><style>.cls-1,.cls-3{fill:#fff;}.cls-2{fill:none;}.cls-2,.cls-3{stroke:#fc191b;stroke-linecap:round;stroke-linejoin:round;stroke-width:8px;}.cls-4{fill:#fc191b;}</style></defs><title>Salsas Culinarios y Postres</title><g id="Layer_2" data-name="Layer 2"><g id="Layer_1-2" data-name="Layer 1"><path class="cls-1" d="M502.73,374.93c-2.47-.27-4.92-.38-7.1-.43a17.73,17.73,0,0,0-3.93-9.65,20.2,20.2,0,0,0-13.11-7.66c-.39,0-.82-.13-1.28-.22a16.07,16.07,0,0,0-2.44-.35c-.8,0-1.1,0-1.49-1.43-2.57-9.15-9-14.66-18.56-15.95a4.69,4.69,0,0,0-1,0l-.05,0q-.06-.56-.12-1.12a39,39,0,0,0-1.47-8.32c-2.57-7.9-8.2-13.63-16.76-17a7.36,7.36,0,0,0-7.46,1,9,9,0,0,0-2.87,8.55,10.38,10.38,0,0,1-1,6.68c-3.47,6.7-9,10.13-16.51,10.22l-6.41.07a157.13,157.13,0,0,1-1.33-21.11c0-25.46,4.91-52.42,9-70.55a53.43,53.43,0,0,0-5.25-37.53L380,166.9l.21-38.25a2.91,2.91,0,0,0-2.91-2.92h-32l5.88-93a17.06,17.06,0,0,0-16.89-18.13L145.1,13.09h-.21a25.84,25.84,0,0,0-20.14,9.58l-23.19,28.5L79.92,33.43a16.78,16.78,0,0,0-23.57,2.35L39,57a16.74,16.74,0,0,0,2.34,23.57l21.8,17.87L43.71,122.25a25.85,25.85,0,0,0-5.76,18.35L52.39,332.19a30.84,30.84,0,0,0-10.07,5.72c-14.55.9-25.63,12.5-27.22,28.86-.48,4.86-1.17,12,3.28,18a42.28,42.28,0,0,0-4.94,16.2C12,413.87,15,424.71,22.52,433.15a114.32,114.32,0,0,0,26.59,22c23,13.81,49.75,24.11,81.88,31.51a363.65,363.65,0,0,0,44.42,7.62,328.5,328.5,0,0,0,34,1.93,227,227,0,0,0,23.05-1.13,140.12,140.12,0,0,0,37.64-9c11.79-4.64,19.89-12.27,24.6-23.2h89.55a52.36,52.36,0,0,0,14.54,2.1q1.08,0,2.18,0c9.3-.38,18.83-.38,28.31,0,8.58.35,17.22-1.6,26.39-6a84.16,84.16,0,0,0,23.71-16.22c11.31-11.22,18.54-24.07,21.49-38.2a11.5,11.5,0,0,0,.28-2.56,2.68,2.68,0,0,1,.78-.19c6.64-.27,11.59-6.61,11.89-12.14C514.23,382,509.45,375.69,502.73,374.93Z"/><path class="cls-1" d="M209.43,509.33a340.8,340.8,0,0,1-35.37-2,376.47,376.47,0,0,1-46-7.89c-33.5-7.71-61.52-18.52-85.69-33a127.39,127.39,0,0,1-29.63-24.55C2.79,430.67-1.46,416,.44,399.45a59.55,59.55,0,0,1,3.37-14.33C.91,377.43,1.64,370,2.08,365.49c2.05-21.07,16.25-37,35.15-40.16q.71-.5,1.44-1L24.9,141.58A38.89,38.89,0,0,1,33.56,114l11.18-13.74L33,90.64a29.83,29.83,0,0,1-4.17-42L46.23,27.48a29.88,29.88,0,0,1,42-4.18L99.7,32.72l14.9-18.31A38.9,38.9,0,0,1,144.89,0h.32L334.4,1.5a30.15,30.15,0,0,1,29.85,32l-5,79.1H377.3a16,16,0,0,1,16,16.09l-.19,34.86,22,40.21a66.5,66.5,0,0,1,6.54,46.71c-3.72,16.38-8.12,40.16-8.66,63a21.18,21.18,0,0,1,6.77-10,20.56,20.56,0,0,1,20.55-3c12.17,4.86,20.59,13.56,24.36,25.16.31,1,.57,1.91.79,2.83a33,33,0,0,1,17.85,16.22,33.55,33.55,0,0,1,18.64,12,33.15,33.15,0,0,1,3.46,5.35c13,2.12,22.2,14,21.48,28.25a27.07,27.07,0,0,1-14.43,22c-4,14.66-12,28-23.87,39.76a97,97,0,0,1-27.31,18.75c-11.13,5.28-21.78,7.63-32.53,7.21-9.13-.36-18.3-.36-27.26,0-.89,0-1.8.06-2.7.06a64.48,64.48,0,0,1-16.29-2.1H302.59C296.26,486,287,493.52,274.91,498.27a153,153,0,0,1-41.1,9.87A239,239,0,0,1,209.43,509.33ZM69.32,42.73a3.66,3.66,0,0,0-2.84,1.34L49.12,65.25a3.65,3.65,0,0,0,.51,5.14L71.43,88.26a13.09,13.09,0,0,1,1.85,18.39L53.86,130.52a12.82,12.82,0,0,0-2.86,9.1L65.45,331.21a13.09,13.09,0,0,1-8.87,13.39,17.75,17.75,0,0,0-5.8,3.31A13.09,13.09,0,0,1,43.13,351c-8.15.5-14,7.2-15,17.06-.3,3.11-.68,7,.72,8.84a13.09,13.09,0,0,1,.93,14.3,29.47,29.47,0,0,0-3.34,11.27c-1.06,9.19.86,16.4,5.85,22A101.23,101.23,0,0,0,55.86,444c21.76,13.08,47.3,22.89,78.07,30a350.76,350.76,0,0,0,42.84,7.36,315,315,0,0,0,32.66,1.86,212.89,212.89,0,0,0,21.73-1.06,127.19,127.19,0,0,0,34.17-8.18c8.54-3.36,14.06-8.5,17.37-16.19a13.09,13.09,0,0,1,12-7.92h89.55a13.08,13.08,0,0,1,3.6.5,39,39,0,0,0,12.57,1.57c9.66-.39,19.54-.39,29.38,0,6.43.26,13.05-1.28,20.26-4.7a71.36,71.36,0,0,0,20.1-13.68c9.46-9.38,15.48-20,17.9-31.58h0a13.09,13.09,0,0,1,8.58-12.18,15.75,15.75,0,0,1,4-.93l.08-.12a2.73,2.73,0,0,0-.14-.8c-1.57-.15-3.3-.25-5.28-.29a13.09,13.09,0,0,1-12.78-12.21,5,5,0,0,0-1.14-2.41,7.3,7.3,0,0,0-4.32-2.77c-.86-.09-1.68-.25-2.28-.37-.26-.05-.46-.1-.68-.13-6.54-.34-11.54-4.43-13.37-11-1.1-3.91-3.12-5.75-7.12-6.42a13.17,13.17,0,0,1-12.86-11.73l-.12-1.19a28.64,28.64,0,0,0-.9-5.59,12.64,12.64,0,0,0-2.07-4,23.75,23.75,0,0,1-2,5.21c-5.7,11-15.64,17.14-28,17.28l-6.44.07A13.07,13.07,0,0,1,388.22,341a170,170,0,0,1-1.45-22.86c0-26.67,5.09-54.67,9.36-73.45a40.34,40.34,0,0,0-4-28.34l-23.65-43.19a13.09,13.09,0,0,1-1.61-6.36l.16-28H345.29a13.09,13.09,0,0,1-13.06-13.92l5.88-93a4,4,0,0,0-3.93-4.22l-189.28-1.5a12.83,12.83,0,0,0-10,4.75l-23.19,28.5a13.09,13.09,0,0,1-18.45,1.86L71.62,43.55A3.63,3.63,0,0,0,69.32,42.73Zm433.2,372.17h0Zm-14.44-12.73h0Zm12.76-13.63h0Zm-46.06-36.27h0Z"/><path class="cls-1" d="M334.27,20.55a14.15,14.15,0,0,1,14,15L323.45,428.11a4.45,4.45,0,0,1-4.43,4.16H288.74s-26.95,12-98.84,16.47h-5c-71.89-4.49-87.85-16.47-87.85-16.47H66.74a4.43,4.43,0,0,1-4.42-4.1L40.85,143.43A23,23,0,0,1,46,127.14L67.22,101,102,58.32l25-30.76a23.06,23.06,0,0,1,18.07-8.51Z"/><path class="cls-1" d="M102,58.32,67.22,101h0l-24-19.7a13.83,13.83,0,0,1-1.94-19.47L58.6,40.67a13.84,13.84,0,0,1,19.48-1.94Z"/><path class="cls-2" d="M67.22,101,46,127.14a23,23,0,0,0-5.11,16.29L62.32,428.17a4.43,4.43,0,0,0,4.42,4.1H97.06s16,12,87.85,16.47h5c71.89-4.49,98.84-16.47,98.84-16.47H319a4.45,4.45,0,0,0,4.43-4.16L348.27,35.59a14.15,14.15,0,0,0-14-15l-189.19-1.5A23.06,23.06,0,0,0,127,27.56L102,58.32Z"/><path class="cls-2" d="M295.68,407.55c-20.9,10.69-49.12,15.07-75,17-31.2,2.3-63.91,1-94-5.14-13-2.66-25.91-6.32-36.69-11.83"/><path class="cls-2" d="M67.21,101l-24-19.7a13.83,13.83,0,0,1-1.94-19.47L58.6,40.67a13.84,13.84,0,0,1,19.48-1.94L102,58.32"/><line class="cls-2" x1="87.63" y1="385.65" x2="70.04" y2="152.82"/><line class="cls-2" x1="90.03" y1="120.53" x2="149.54" y2="48.66"/><line class="cls-2" x1="314.17" y1="51.21" x2="298.76" y2="375.56"/><path class="cls-3" d="M98.51,156.48a96.39,96.39,0,0,1,74.85,10.69c2.08,1.28,4.3,2.68,6.73,2.51,2.28-.16,4.2-1.67,6-3.08,27.88-21.82,78.22-36.28,113.59-34.81"/><line class="cls-2" x1="74.15" y1="88.83" x2="41.43" y2="62.84"/><line class="cls-2" x1="82.94" y1="78.38" x2="50.22" y2="52.4"/><line class="cls-2" x1="92.32" y1="67.17" x2="59.6" y2="41.19"/><polygon class="cls-1" points="332.16 131.69 332.16 170.69 316.92 170.69 316.92 131.69 328.13 131.69 332.16 131.69"/><path class="cls-1" d="M401.09,214.54a50.55,50.55,0,0,1,5,35.49c-4,17.5-9.11,45.14-9.11,71.19,0,42.53,13.89,53.18,13.89,86.15S394,463,394,463H285.21s-16.88-22.7-16.88-55.66,13.89-43.62,13.89-86.15c0-26.06-5.13-53.69-9.11-71.19a50.55,50.55,0,0,1,5-35.49l24-43.84h75Z"/><rect class="cls-1" x="332.16" y="131.69" width="15.29" height="39"/><polygon class="cls-1" points="316.92 131.69 316.92 170.69 302.08 170.69 301.86 131.69 316.92 131.69"/><polygon class="cls-1" points="362.78 170.69 347.45 170.69 347.45 131.69 351.04 131.69 362.78 131.69 362.78 170.69"/><polygon class="cls-1" points="377.08 170.69 362.78 170.69 362.78 131.69 377.3 131.69 377.08 170.69"/><path class="cls-2" d="M302.08,170.7l-24,43.84a50.55,50.55,0,0,0-5,35.49c4,17.5,9.11,45.14,9.11,71.19,0,42.53-13.89,53.18-13.89,86.15S285.21,463,285.21,463H394s16.88-22.7,16.88-55.66-13.89-43.62-13.89-86.15c0-26.06,5.13-53.69,9.11-71.19a50.55,50.55,0,0,0-5-35.49l-24-43.84.22-39H301.86Z"/><polyline class="cls-2" points="302.08 170.69 316.92 170.69 332.16 170.69 347.45 170.69 362.78 170.69 377.08 170.69"/><line class="cls-2" x1="316.92" y1="170.7" x2="316.92" y2="131.69"/><line class="cls-2" x1="332.16" y1="170.7" x2="332.16" y2="131.69"/><line class="cls-2" x1="347.45" y1="170.7" x2="347.45" y2="131.69"/><line class="cls-2" x1="362.78" y1="170.7" x2="362.78" y2="131.69"/><path class="cls-2" d="M309.69,183.49s-14,22.75-18.38,35"/><path class="cls-2" d="M291.83,269.44s17.94,48-2.19,110"/><path class="cls-2" d="M285.27,233.23c-1.78,7.31-1.47,17.49.72,24"/><path class="cls-2" d="M284,398.11a63.26,63.26,0,0,0,9,50.47"/><path class="cls-1" d="M502.41,380.88c5.23.59,8.83,5.68,8.52,11.71-.22,4.08-4,9.17-9.1,9.38-1.45.06-2.55.82-3.83,1.21l-.3-.3a13.59,13.59,0,0,0-4.41-.6q-78.59,0-157.19.09c-1.57,0-3.14.09-4.7.08a17.85,17.85,0,0,1-5.59-.78,10.89,10.89,0,0,1-7.34-12c.87-4.42,4.25-9,11.15-9.1,2.36,0,4.71-.08,7.08-.1l4.7,0q73.3.22,146.59,0c1.57,0,3.14,0,4.7,0A91,91,0,0,1,502.41,380.88Z"/><path class="cls-1" d="M498,403.48a6.79,6.79,0,0,1,0,3.55c-3,14.45-10.36,26.49-20.69,36.73a81.94,81.94,0,0,1-22.91,15.65c-7.93,3.76-16.09,6-25,5.68-9.5-.38-19-.39-28.55,0s-18.31-2.07-26.81-6.23c-15.22-7.43-27.35-18.19-35.54-33-3.8-6.9-7.2-14.11-7.13-22.34v-1c1.56,0,3.14-.08,4.7-.08q78.59-.16,157.19-.09a13.59,13.59,0,0,1,4.41.6l.3.3Z"/><path class="cls-1" d="M478.28,363.14c8.07.92,15.29,9.26,14.42,16.5v.79c-1.57,0-3.14,0-4.7,0q-73.3.23-146.59,0l-4.7,0v-.81c-.51-7,6.45-16.26,16.78-16.78,3.39-.17,4.56-.94,5.58-4.12,2.85-8.95,10.28-13.77,19.44-13.59,9.71.21,19.43.14,29.14,0,8.66-.1,15.1-4.14,19.06-11.79a13.26,13.26,0,0,0,1.32-8.51c-.79-4.55,2.59-7.92,6.38-6.41,7.17,2.86,12.58,7.6,15.07,15.24,1.16,3.57,1.21,7.26,1.7,10.87.52.11,1.13.07,1.47.36.6.5,1.21.17,1.79.25,8.39,1.13,13.86,5.7,16.15,13.85.64,2.27,1.8,3.44,4.16,3.55C475.93,362.64,477.1,363,478.28,363.14Z"/><path class="cls-2" d="M331.39,403.48c-.07,8.22,3.33,15.44,7.13,22.34,8.18,14.86,20.32,25.62,35.54,33,8.5,4.16,17.21,6.62,26.81,6.23s19-.38,28.55,0c8.94.36,17.1-1.91,25-5.68a81.94,81.94,0,0,0,22.91-15.65C487.68,433.52,495,421.47,498,407a6.79,6.79,0,0,0,0-3.55"/><path class="cls-2" d="M497.71,402.89a13.59,13.59,0,0,0-4.41-.6q-78.59,0-157.19.09c-1.57,0-3.14.09-4.7.08a17.85,17.85,0,0,1-5.59-.78,10.89,10.89,0,0,1-7.34-12c.87-4.42,4.25-9,11.15-9.1,2.36,0,4.71-.08,7.08-.1l4.7,0q73.3.22,146.59,0c1.57,0,3.14,0,4.7,0a91,91,0,0,1,9.71.45c5.23.59,8.83,5.68,8.52,11.71-.22,4.08-4,9.17-9.1,9.38-1.45.06-2.55.82-3.83,1.21"/><path class="cls-2" d="M492.71,379.64c.87-7.24-6.35-15.57-14.42-16.5-1.18-.13-2.35-.5-3.54-.55-2.36-.1-3.52-1.28-4.16-3.55-2.29-8.15-7.77-12.73-16.15-13.85-.59-.08-1.19.25-1.79-.25-.34-.29-.95-.25-1.47-.36-.5-3.61-.55-7.3-1.7-10.87-2.48-7.65-7.9-12.38-15.07-15.24-3.79-1.51-7.17,1.86-6.38,6.41a13.26,13.26,0,0,1-1.32,8.51c-4,7.65-10.4,11.69-19.06,11.79-9.71.11-19.43.18-29.14,0-9.17-.18-16.59,4.64-19.44,13.59-1,3.18-2.19,4-5.58,4.12-10.33.52-17.29,9.78-16.78,16.78"/><path class="cls-2" d="M356.41,424.68a4.35,4.35,0,0,0,.87,3.25c9.2,10.34,20.12,18.13,33.27,22.68a5.38,5.38,0,0,0,3.55.12"/><path class="cls-1" d="M305.45,406.85c4.76,11,1.36,27.14-9.25,34.76l-.41-.32c-2-4.25-3.19-8.79-6.57-12.43-7.42-8-16.84-10.17-27-9.06a363.14,363.14,0,0,1-37.93,2.32,292.83,292.83,0,0,1-49.15-3.8c-20-3.3-39.78-7.63-59-14.41-12.52-4.41-24.78-9.28-36.85-14.74-8.61-3.89-16.22-9.91-25.3-12.65-11-3.32-21.22-1.84-29.33,7.41a30.54,30.54,0,0,0-2.65,3.5l-.37-.25c-4.58-5-4.22-11.21-3.64-17.06,1.45-14.86,11.43-26.31,26.18-26.3a31.86,31.86,0,0,1,7.12.85c4.59,1.06,9.16,2.16,13.74,3.24l.35-.46.3.42c3.54,4.87,5.37,10.48,8.65,15.43,5.16,7.79,13,12.3,23.47,5,3.1-2.14,6.26-3.7,9.71-2.64,4.13,1.28,8.24,3,10.57,7.25,2.89,5.25,5.2,10.87,9.37,15.35,4.76,5.11,10.23,5.76,16,1.74,2-1.4,3.74-3.18,5.75-4.56,4-2.73,6.15-2.49,10,.52s6.74,7.3,11.46,9.64c6.85,3.38,10.9,3.27,16.69-1.54,2.39-2,5-3.69,7.52-5.53,3.81,2.39,5,6.53,8,9.19a9.11,9.11,0,0,0,12.52,0c7.41-7.18,7.35-7.12,15-.38,5.2,4.6,11.08,6.68,17.94-.65,6.73-7.17,7-6.94,15.08-1.35,1.22.84,2.77,1.28,3.82,2.28,2.23,2.09,4.74,2.48,6.58.25s.09-4.58-1.55-5.63l-.19-1.41A36.38,36.38,0,0,1,291.58,393,25.9,25.9,0,0,1,305.45,406.85Z"/><path class="cls-1" d="M296.16,441.84c-.66,5.15-.28,10.36-1.6,15.51-3.61,14.08-11.72,23.66-25.5,29.08a137.7,137.7,0,0,1-36.87,8.84c-18.88,1.92-37.65,1.16-56.47-.8a362.41,362.41,0,0,1-44.07-7.56c-28.45-6.55-55.89-16.05-81-31.17a111.47,111.47,0,0,1-25.91-21.47c-7.59-8.53-9.63-18.91-8.36-29.95A38.2,38.2,0,0,1,22,387.42a30.54,30.54,0,0,1,2.65-3.5C32.79,374.68,43,373.19,54,376.51c9.07,2.73,16.69,8.75,25.3,12.65,12.06,5.46,24.33,10.34,36.85,14.74,19.23,6.78,39,11.1,59,14.41a292.83,292.83,0,0,0,49.15,3.8,363.14,363.14,0,0,0,37.93-2.32c10.14-1.11,19.56,1,27,9.06,3.38,3.65,4.58,8.18,6.57,12.43l.41.32Z"/><path class="cls-1" d="M271.94,390.87l.19,1.41a4.08,4.08,0,0,0-.54-.3c-5.09-2.4-9.29-6.71-15.32-7.14-3.18-.22-6,.06-8.24,2.69-.64.75-1.57,1.25-2.28,2-5.4,5.41-9.09,3.94-13.47.16a45.92,45.92,0,0,0-4.09-3.66c-3.7-2.48-8.61-1.75-12.8,1.71-6.18,5.1-8,5-12.72-1.13-3.3-4.29-8.4-6.12-13.36-2.65-1.63,1.13-3.36,2.09-4.92,3.34l-1.47-.33c-3.9-.68-7.74-2.24-11.81-.93l-2-.25c-4.17-4.34-8.73-8.3-15.33-9-3.82-.44-6.29,2.14-9.31,3.49l-.29-1c-5.35-1.26-10.29-4.1-16-4.16l-1,.52c-2.22-4.31-4.38-8.65-7.64-12.35a18.59,18.59,0,0,0-6.94-5.14l.06-.14q5.18,2.07,10.48,3.95a330.32,330.32,0,0,0,43.63,12.24,303.67,303.67,0,0,0,37.87,5.09,336.67,336.67,0,0,0,34.79,1c9.76-.25,19.49-1.85,29.26-2.06a25.77,25.77,0,0,1,23.15,14.31l-.26.6A36.38,36.38,0,0,0,271.94,390.87Z"/><path class="cls-4" d="M272.13,392.28c1.64,1,3.37,3.41,1.55,5.63s-4.35,1.85-6.58-.25c-1.05-1-2.6-1.43-3.82-2.28-8.13-5.59-8.35-5.81-15.08,1.35-6.87,7.33-12.74,5.25-17.94.65-7.61-6.74-7.55-6.8-15,.38a9.11,9.11,0,0,1-12.52,0c-3-2.66-4.18-6.8-8-9.19-2.52,1.84-5.13,3.54-7.52,5.53-5.79,4.81-9.84,4.92-16.69,1.54-4.72-2.33-7.55-6.55-11.46-9.64s-6-3.25-10-.52c-2,1.38-3.76,3.16-5.75,4.56-5.72,4-11.2,3.37-16-1.74-4.17-4.48-6.48-10.1-9.37-15.35-2.33-4.22-6.44-6-10.57-7.25-3.45-1.06-6.61.5-9.71,2.64-10.47,7.26-18.31,2.76-23.47-5-3.27-4.95-5.11-10.56-8.65-15.43l-.3-.42c-3.27-4.75-2-7,3-8.53,4.72,5.65,7.38,12.53,10.82,19l.7,1.28c3.47,6.21,7,7.71,12.29,3.82l.33-.65c.62.32,1.26.62,1.92.9,1-.79,2.21-1.94,3.57-2.91,4.77-3.37,9.83-4.18,14.54-2.28a18.59,18.59,0,0,1,6.94,5.14c3.27,3.7,5.43,8,7.64,12.35.78,1.53,1.58,3,2.43,4.53,4.07,7.09,7.22,7.41,13.07,1.7a6.93,6.93,0,0,1,1.77-1.54c3-1.35,5.49-3.93,9.31-3.49,6.6.75,11.16,4.71,15.33,9,.55.57,1.09,1.14,1.63,1.72,3.28,3.5,8.94,5,11.66,1.72a14,14,0,0,1,2-1.93c1.56-1.25,3.29-2.21,4.92-3.34,5-3.46,10.07-1.63,13.36,2.65,4.68,6.09,6.54,6.22,12.72,1.13,4.19-3.46,9.1-4.19,12.8-1.71a45.92,45.92,0,0,1,4.09,3.66c4.38,3.78,8.07,5.25,13.47-.16.71-.71,1.64-1.21,2.28-2,2.21-2.63,5.06-2.91,8.24-2.69,6,.43,10.23,4.74,15.32,7.14A4.08,4.08,0,0,1,272.13,392.28Z"/><path class="cls-1" d="M182.91,386.94l1.47.33a14,14,0,0,0-2,1.93c-2.71,3.24-8.38,1.79-11.66-1.72-.54-.58-1.07-1.15-1.63-1.72l2,.25C175.17,384.7,179,386.25,182.91,386.94Z"/><path class="cls-4" d="M144.17,379.15l.29,1a6.93,6.93,0,0,0-1.77,1.54c-5.85,5.71-9,5.39-13.07-1.7-.85-1.49-1.65-3-2.43-4.53l1-.52C133.88,375.05,138.82,377.89,144.17,379.15Z"/><path class="cls-1" d="M112.67,357.89l-.06.14c-4.71-1.9-9.77-1.09-14.54,2.28-1.37,1-2.6,2.11-3.57,2.91-.66-.28-1.3-.59-1.92-.9-4.26-2.16-7.69-4.87-12.23-4.62l-1.1.17c-3.44-6.43-6.1-13.31-10.82-19l.33-1.32a29,29,0,0,1,6,2.43A363.18,363.18,0,0,0,112.67,357.89Z"/><path class="cls-1" d="M92.58,362.31l-.33.65c-5.33,3.89-8.82,2.39-12.29-3.82l-.7-1.28,1.1-.17C84.89,357.44,88.31,360.15,92.58,362.31Z"/><path class="cls-1" d="M68.76,337.59l-.33,1.32c-5,1.48-6.32,3.79-3,8.53l-.35.46c-4.58-1.08-9.15-2.18-13.74-3.24a31.86,31.86,0,0,0-7.12-.85v-.6A26.56,26.56,0,0,1,68.76,337.59Z"/><path class="cls-2" d="M296.16,441.84c-.66,5.15-.28,10.36-1.6,15.51-3.61,14.08-11.72,23.66-25.5,29.08a137.7,137.7,0,0,1-36.87,8.84c-18.88,1.92-37.65,1.16-56.47-.8a362.41,362.41,0,0,1-44.07-7.56c-28.45-6.55-55.89-16.05-81-31.17a111.47,111.47,0,0,1-25.91-21.47c-7.59-8.53-9.63-18.91-8.36-29.95A38.2,38.2,0,0,1,22,387.42a30.54,30.54,0,0,1,2.65-3.5C32.79,374.68,43,373.19,54,376.51c9.07,2.73,16.69,8.75,25.3,12.65,12.06,5.46,24.33,10.34,36.85,14.74,19.23,6.78,39,11.1,59,14.41a292.83,292.83,0,0,0,49.15,3.8,363.14,363.14,0,0,0,37.93-2.32c10.14-1.11,19.56,1,27,9.06,3.38,3.65,4.58,8.18,6.57,12.43"/><path class="cls-2" d="M291.84,392.36A25.77,25.77,0,0,0,268.7,378c-9.76.21-19.49,1.81-29.26,2.06a336.67,336.67,0,0,1-34.79-1,303.67,303.67,0,0,1-37.87-5.09,330.32,330.32,0,0,1-43.63-12.24q-5.29-1.87-10.48-3.95A363.18,363.18,0,0,1,74.76,340a29,29,0,0,0-6-2.43,26.56,26.56,0,0,0-24.59,5.62"/><path class="cls-2" d="M92.24,363c-5.33,3.89-8.82,2.39-12.29-3.82l-.7-1.28c-3.44-6.43-6.1-13.31-10.82-19-5,1.48-6.32,3.79-3,8.53l.3.42c3.54,4.87,5.37,10.48,8.65,15.43,5.16,7.79,13,12.3,23.47,5,3.1-2.14,6.26-3.7,9.71-2.64,4.13,1.28,8.24,3,10.57,7.25,2.89,5.25,5.2,10.87,9.37,15.35,4.76,5.11,10.23,5.76,16,1.74,2-1.4,3.74-3.18,5.75-4.56,4-2.73,6.15-2.49,10,.52s6.74,7.3,11.46,9.64c6.85,3.38,10.9,3.27,16.69-1.54,2.39-2,5-3.69,7.52-5.53,3.81,2.39,5,6.53,8,9.19a9.11,9.11,0,0,0,12.52,0c7.41-7.18,7.35-7.12,15-.38,5.2,4.6,11.08,6.68,17.94-.65,6.73-7.17,7-6.94,15.08-1.35,1.22.84,2.77,1.28,3.82,2.28,2.23,2.09,4.74,2.48,6.58.25s.09-4.58-1.55-5.63a4.08,4.08,0,0,0-.54-.3c-5.09-2.4-9.29-6.71-15.32-7.14-3.18-.22-6,.06-8.24,2.69-.64.75-1.57,1.25-2.28,2-5.4,5.41-9.09,3.94-13.47.16a45.92,45.92,0,0,0-4.09-3.66c-3.7-2.48-8.61-1.75-12.8,1.71-6.18,5.1-8,5-12.72-1.13-3.3-4.29-8.4-6.12-13.36-2.65-1.63,1.13-3.36,2.09-4.92,3.34a14,14,0,0,0-2,1.93c-2.71,3.24-8.38,1.79-11.66-1.72-.54-.58-1.07-1.15-1.63-1.72-4.17-4.34-8.73-8.3-15.33-9-3.82-.44-6.29,2.14-9.31,3.49a6.93,6.93,0,0,0-1.77,1.54c-5.85,5.71-9,5.39-13.07-1.7-.85-1.49-1.65-3-2.43-4.53-2.22-4.31-4.38-8.65-7.64-12.35a18.59,18.59,0,0,0-6.94-5.14c-4.71-1.9-9.77-1.09-14.54,2.28-1.37,1-2.6,2.11-3.57,2.91-.66-.28-1.3-.59-1.92-.9-4.26-2.16-7.69-4.87-12.23-4.62"/><path class="cls-2" d="M52.24,425.94c16.52,12.27,34.68,21.69,53.64,29.32a270.58,270.58,0,0,0,59.59,16.12,243.11,243.11,0,0,0,72.44,0c2.36-.34,4.68-1,7-1.45"/><path class="cls-2" d="M65,347.9c-4.58-1.08-9.15-2.18-13.74-3.24a31.86,31.86,0,0,0-7.12-.85c-14.75,0-24.73,11.44-26.18,26.3-.57,5.85-.94,12.1,3.64,17.06"/><path class="cls-2" d="M271.85,390.88h.09A36.38,36.38,0,0,1,291.58,393a25.9,25.9,0,0,1,13.87,13.88c4.76,11,1.36,27.14-9.25,34.76"/><path class="cls-2" d="M144.17,379.15c-5.35-1.26-10.29-4.1-16-4.16"/><path class="cls-2" d="M182.91,386.94c-3.9-.68-7.74-2.24-11.81-.93"/></g></g></svg>