<svg xmlns="http://www.w3.org/2000/svg" viewBox="0 0 132.49 132.49"><defs><style>.cls-1{fill:#666;}.cls-2{fill:#fff;}</style></defs><title>Venado - fondo gris</title><g id="Layer_2" data-name="Layer 2"><g id="Layer_1-2" data-name="Layer 1"><rect class="cls-1" width="132.49" height="132.49" rx="7.95" ry="7.95"/><path class="cls-2" d="M56.22,49.45h0L51.45,35.61A1.59,1.59,0,0,0,50,34.53H23a1,1,0,0,0-.91,1.33l1.75,4.55h0l4,10.33H56.66Z"/><path class="cls-2" d="M78.59,34.33H77.07c-.09,0-.14,0-.14.12v.32c0,.08,0,.11.14.11h.86v1.95a5.78,5.78,0,0,1-1.19.09h0c-1,0-1.29-.31-1.29-.94v-2.8c0-.63.39-.94,1.37-.94h.06a9.58,9.58,0,0,1,1.52.14c.11,0,.14,0,.14-.09l0-.31c0-.08,0-.11-.16-.14a8.71,8.71,0,0,0-1.52-.12c-1.41,0-2.18.42-2.18,1.48V36c0,1.05.69,1.48,2.12,1.48a6.71,6.71,0,0,0,1.87-.22c.11,0,.14-.06.14-.15V34.45C78.73,34.36,78.7,34.33,78.59,34.33Z"/><path class="cls-2" d="M84.9,37.28l-.75-1.61c-.25-.53-.42-.77-.68-.88a1.24,1.24,0,0,0,1.1-1.24v-.32c0-1.1-.57-1.45-2-1.45H80.71c-.09,0-.14,0-.14.12v5.41c0,.08,0,.11.14.11h.55c.11,0,.14,0,.14-.11V35h.8c.78,0,.88.15,1.11.66l.77,1.68c0,.08.08.09.19.09l.55,0C84.93,37.39,84.93,37.34,84.9,37.28Zm-2.4-2.81H81.4V32.32h1.15c.91,0,1.21.2,1.21.83v.46C83.75,34.25,83.39,34.47,82.5,34.47Z"/><path class="cls-2" d="M90.83,31.78H90.3c-.09,0-.14,0-.14.12v4.16c0,.65-.44.88-1.32.88s-1.26-.23-1.26-.88V31.9c0-.09,0-.12-.13-.12h-.55c-.09,0-.14,0-.14.12v4.19c0,1.07.71,1.44,2,1.44h.06c1.33,0,2.1-.37,2.1-1.44V31.9C91,31.81,90.94,31.78,90.83,31.78Z"/><path class="cls-2" d="M94.81,31.78H93c-.09,0-.14,0-.14.12v5.41c0,.08,0,.11.14.11h.55c.11,0,.13,0,.13-.11V35.07h1.11c1.46,0,2.07-.36,2.07-1.45v-.39C96.83,32.13,96.27,31.78,94.81,31.78ZM96,33.68c0,.66-.38.83-1.33.83h-1V32.32h1.08c1,0,1.29.17,1.29.83Z"/><path class="cls-2" d="M101,31.69h-.14c-1.43,0-2.18.43-2.18,1.48V36c0,1.07.68,1.5,2.1,1.5h.14c1.43,0,2.18-.43,2.18-1.5V33.17C103.11,32.12,102.44,31.69,101,31.69ZM102.29,36c0,.63-.39.93-1.37.93h-.13c-1,0-1.3-.29-1.3-.93V33.17c0-.65.39-.94,1.37-.94H101c1,0,1.3.29,1.3.94Z"/><path class="cls-2" d="M69.41,39.69H67.85c-.38,0-.38,0-.46.29l-1.08,4.48c-.2.83-.41,1.75-.6,2.81,0,0-.1,0-.11,0-.36-1.93-.38-2-.58-2.84L63.91,40c-.06-.25-.12-.29-.44-.29H61.85c-.27,0-.4.11-.32.35L64,48.64c.06.23.18.32.51.32h2.27c.32,0,.44-.09.52-.32L69.74,40C69.79,39.8,69.69,39.7,69.41,39.69Z"/><path class="cls-2" d="M77.54,47.47H73.46V44.85h3c.32,0,.43-.08.43-.32v-.77c0-.25-.11-.32-.43-.32h-3V41.1H77.4c.32,0,.44-.09.41-.34L77.69,40c0-.25-.17-.31-.48-.31H71.57c-.32,0-.43.09-.43.34v8.59c0,.25.12.34.43.34h5.72c.32,0,.44-.08.48-.31l.18-.86C78,47.56,77.84,47.47,77.54,47.47Z"/><path class="cls-2" d="M87,39.69H85.7c-.31,0-.41.09-.41.34v2.19a36,36,0,0,0,.2,3.94h-.08A23.76,23.76,0,0,0,84.33,44l-2.15-4a.49.49,0,0,0-.54-.31H80.11c-.31,0-.43.09-.43.34v8.59c0,.25.12.34.43.34h1.3c.31,0,.41-.09.41-.34v-2a40.66,40.66,0,0,0-.18-4.08h.06a22.16,22.16,0,0,0,1.14,2.26l2.1,3.9a.51.51,0,0,0,.54.31H87c.31,0,.43-.09.43-.34V40C87.43,39.79,87.34,39.69,87,39.69Z"/><path class="cls-2" d="M94.89,40c-.06-.26-.2-.34-.51-.34H91.74c-.34,0-.44.08-.51.34l-2.38,8.61c-.06.23,0,.29.35.32h1.44c.32,0,.41,0,.46-.25l.46-1.83h2.9l.48,1.83c.06.23.12.27.44.26h1.52c.31,0,.43-.09.35-.32ZM91.8,45.58,93,41.09h.08l1.15,4.49Z"/><path class="cls-2" d="M102.16,39.69H99.11c-.31,0-.43.09-.43.34v8.59c0,.25.12.34.43.34h2.95c2.67,0,4-.74,4-2.55V42.22C106.06,40.4,104.8,39.69,102.16,39.69Zm1.63,6.7c0,.77-.49,1.07-1.63,1.07H101V41.1h1.24c1.1,0,1.53.32,1.53,1.07Z"/><path class="cls-2" d="M112.11,39.54H112c-2.56,0-4,.69-4,2.5V46.6c0,1.83,1.3,2.52,3.87,2.52H112c2.56,0,4-.69,4-2.52V42C116,40.25,114.68,39.54,112.11,39.54Zm1.56,7c0,.77-.51,1.1-1.66,1.1h-.11c-1.15,0-1.53-.34-1.53-1.1V42.06c0-.75.46-1.12,1.63-1.12h.09c1.15,0,1.58.37,1.58,1.12Z"/><path class="cls-2" d="M67.57,85.81a2,2,0,0,0-.69-1.61c-.47-.45-1-.86-1.47-1.29l-.46-.41a.45.45,0,0,0-.25-.09.39.39,0,0,0-.2.08l-.54.49c-.46.41-.93.81-1.39,1.22a2.21,2.21,0,0,0-.66,1.13,1.23,1.23,0,0,0,.78,1.53,2.49,2.49,0,0,0,2-.31,2.74,2.74,0,0,1-1-.25,1.72,1.72,0,0,1-.66-.51l.35-.1a.54.54,0,0,0,.31-.22c0-.06,0-.19,0-.23a.35.35,0,0,0-.22,0c-.12,0-.22.11-.34.15a.29.29,0,0,1-.36-.14.87.87,0,0,1,.16-.91c.19-.23.43-.19.67-.11l.43.13a2.37,2.37,0,0,0,.89.1,5.63,5.63,0,0,0,1-.25.61.61,0,0,1,.55,0,.89.89,0,0,1,.27.94.29.29,0,0,1-.39.19c-.12,0-.23-.12-.36-.17a.29.29,0,0,0-.17,0c-.06,0-.06.14,0,.18a.45.45,0,0,0,.26.24,2.3,2.3,0,0,0,.39.12,2.48,2.48,0,0,1-1.59.78,2.73,2.73,0,0,0,1.63.37A1.21,1.21,0,0,0,67.57,85.81Z"/><path class="cls-2" d="M64.38,87.12c-.5.09-1,.13-1.54.19a1.23,1.23,0,0,0,.78.76,3.35,3.35,0,0,0,1.9.1,1.51,1.51,0,0,0,1.1-.85c-.54-.06-1.06-.09-1.56-.19A1.73,1.73,0,0,0,64.38,87.12Z"/><path class="cls-2" d="M95.58,53.58H72.83l-.77,2v0l-.66,1.73-.06.16-3.11,8.13h0l-2.89,7.55a.55.55,0,0,1-1,0l-1.76-5.13h0l-5-14.5H29.07l2.09,5.32v0L36.4,72.2l0,0L46.74,98.46a3.91,3.91,0,0,0,3.64,2.48h12l-.67-.55a17.27,17.27,0,0,1-3-3,7.17,7.17,0,0,1-1.55-5A7.08,7.08,0,0,1,57.87,90c.54-1.25.86-2,1.44-3.21a11.29,11.29,0,0,0,.39-3.5s-.15-1.39-.34-2.81a2.71,2.71,0,0,0,.1.27c.05.12.11.24.17.35A4.93,4.93,0,0,0,60.22,83a4.19,4.19,0,0,0,.6.83,2.73,2.73,0,0,0,.81.62,6.45,6.45,0,0,1-.58-.79,8.76,8.76,0,0,1-.47-.84,12.83,12.83,0,0,1-.69-1.8v0l-.23-.27a1.48,1.48,0,0,0,1,.39,1.43,1.43,0,0,0,.9-.32,1.64,1.64,0,0,1,.24-.14l.19-.1.06,0,0,0a.86.86,0,0,0,.25-.16.3.3,0,0,0,.06-.08.19.19,0,0,0,0-.13l0-.14a2.57,2.57,0,0,0-.17-.53,2.36,2.36,0,0,0-.71-.9,2.81,2.81,0,0,0-1-.5,4.06,4.06,0,0,0-1.12-.12c-.19,0-.37,0-.55,0l-.27,0-.26,0-.52.06-.52,0a5.89,5.89,0,0,1-.81-.05l-.16,0a4,4,0,0,1-2-1.62,4.85,4.85,0,0,1-.74-1.57,1.6,1.6,0,0,1,0-.56.34.34,0,0,1,.45-.3c.88.17,1.76.33,2.64.52a4.56,4.56,0,0,1,2.28,1.37c.17.17.35.35.53.51a.82.82,0,0,0,.95.21.88.88,0,0,0,.41-.93,1.68,1.68,0,0,0-1.19-1.32l-.3-.11C58.07,73.87,54,73.32,53,73l-1.14-.41h0s-6.46-2.14-8.69-5.71h0a17,17,0,0,1-1.5-2.43A5.65,5.65,0,0,1,41,62.88a2.26,2.26,0,0,1,0-.6c0-.07.06-.2.1-.2a.05.05,0,0,1,.08,0c.08.14.15.36.33.69A5.23,5.23,0,0,0,42.3,64s.06,0,.08-.07l0-.05c-.07-.36-.15-.72-.19-1.08a13,13,0,0,1,.23-4,7.15,7.15,0,0,1,.31-1c0-.08.14-.12.22-.18s.12.14.13.22a8,8,0,0,1,.05.9c0,.77-.06,1.55,0,2.32s.07,1.53.49,1.88a1,1,0,0,0,.59.22.91.91,0,0,0,.6-.22,10.55,10.55,0,0,0,2.34-2.91,8.61,8.61,0,0,0,.79-2.45c0-.22.09-.44.16-.66,0-.06.09-.1.13-.15s.12.07.14.12a3.64,3.64,0,0,1,.2.73,6.45,6.45,0,0,1-1,4c-.3.5-.62,1-.9,1.51a4,4,0,0,0-.44,2.92,6.36,6.36,0,0,0,2.36,3.54,1.93,1.93,0,0,0,1.1.45.58.58,0,0,0,.61-.45,3.77,3.77,0,0,0,0-.76A11.78,11.78,0,0,1,50.3,66a5.4,5.4,0,0,1,.53-1.84.87.87,0,0,1,.62-.53,1.08,1.08,0,0,1,0,.23c0,.19-.07.39-.1.58a10.35,10.35,0,0,0,0,3.47,5.94,5.94,0,0,0,1,2.46,8.84,8.84,0,0,1,.46-2.5,2.14,2.14,0,0,1,.45-.69A.54.54,0,0,1,53.5,67h.08a2.35,2.35,0,0,1-.07.65,8.59,8.59,0,0,0-.19,2.45,1.9,1.9,0,0,0,.35,1.33A8.92,8.92,0,0,0,58,72.83c.74-.08,1.15-.83,1.26-1.53a3.49,3.49,0,0,0-.64-2.63c-.23-.33-.51-.62-.76-.94,0-.05-.09-.15-.07-.18s.52-.18,1.28.39a3.8,3.8,0,0,1,1.15,1.87,8.67,8.67,0,0,1,.36,2.43,2.52,2.52,0,0,0,.75,1.35c.29.29.52.51.72.68l.25.2h0a5.48,5.48,0,0,0,1.21.71,2,2,0,0,0,1.7.34,8.46,8.46,0,0,0,1.93-1c.76-.58,1.67-1.49,1.72-2.24a8.66,8.66,0,0,1,.36-2.43A3.8,3.8,0,0,1,70.36,68c.76-.58,1.24-.45,1.28-.39s0,.13-.07.18c-.25.31-.53.61-.76.94a3.49,3.49,0,0,0-.64,2.63c.11.7.52,1.45,1.26,1.53a8.92,8.92,0,0,0,4.35-1.4,1.9,1.9,0,0,0,.35-1.33,8.59,8.59,0,0,0-.19-2.45,2.35,2.35,0,0,1-.07-.65h.08a.55.55,0,0,1,.28.15,2.14,2.14,0,0,1,.45.69,8.84,8.84,0,0,1,.46,2.5,5.94,5.94,0,0,0,1-2.46,10.35,10.35,0,0,0,0-3.47c0-.19-.07-.39-.1-.58a1.08,1.08,0,0,1,0-.23.87.87,0,0,1,.62.53A5.4,5.4,0,0,1,79.13,66a11.78,11.78,0,0,1,.09,2.87,3.77,3.77,0,0,0,0,.76.58.58,0,0,0,.61.45,1.93,1.93,0,0,0,1.1-.45,6.36,6.36,0,0,0,2.36-3.54,4,4,0,0,0-.44-2.92c-.28-.51-.6-1-.9-1.51a6.45,6.45,0,0,1-1-4,3.64,3.64,0,0,1,.2-.73s.09-.08.14-.12.12.09.13.15c.06.22.11.44.16.66a8.61,8.61,0,0,0,.79,2.45A10.55,10.55,0,0,0,84.69,63a.91.91,0,0,0,.6.22,1,1,0,0,0,.59-.22c.42-.35.48-1.24.49-1.88s0-1.55,0-2.32a8,8,0,0,1,.05-.9c0-.08.08-.15.13-.22s.19.11.22.18a7.15,7.15,0,0,1,.31,1,13,13,0,0,1,.23,4c0,.36-.12.72-.19,1.08L87,64c0,.11.08.07.08.07A5.23,5.23,0,0,0,88,62.79c.19-.33.26-.56.33-.69a.05.05,0,0,1,.08,0s.1.13.1.2a2.26,2.26,0,0,1,0,.6,5.65,5.65,0,0,1-.73,1.57,17,17,0,0,1-1.51,2.43c-2.19,3.51-8.47,5.63-8.68,5.7L76.39,73c-1,.34-5.35.92-6.32,1.27a2,2,0,0,0-1.19.9,1.26,1.26,0,0,0-.12,1,.69.69,0,0,0,1.06.41,7.11,7.11,0,0,0,.9-.78,4.34,4.34,0,0,1,1.7-1.12c.57-.17,1.16-.28,1.75-.41L75.46,74c.32-.07.51.06.54.39a2.24,2.24,0,0,1-.28,1.1,5,5,0,0,1-1.63,2.1,3.65,3.65,0,0,1-.95.49h0a6.27,6.27,0,0,1-1.05.09l-.52,0L71.09,78l-.26,0-.27,0c-.18,0-.37,0-.55,0a4.06,4.06,0,0,0-1.12.12,2.81,2.81,0,0,0-1,.5,2.36,2.36,0,0,0-.71.9A2.57,2.57,0,0,0,67,80l0,.14h0l0,0a.38.38,0,0,0,0,.14l.14.08.14.08.14.08.19.1a1.64,1.64,0,0,1,.24.14,1.43,1.43,0,0,0,.9.32,1.47,1.47,0,0,0,.93-.35l-.2.23v0a12.83,12.83,0,0,1-.69,1.8,8.76,8.76,0,0,1-.47.84,6.45,6.45,0,0,1-.58.79,2.73,2.73,0,0,0,.81-.62,4.19,4.19,0,0,0,.6-.83,4.93,4.93,0,0,0,.58-1.93c.06-.12.12-.23.17-.35a2.39,2.39,0,0,0,.13-.37l.05-.1c-.13,1-.25,2-.32,2.52a9.13,9.13,0,0,0,.37,3.92,27.56,27.56,0,0,1,2,4.5,6.55,6.55,0,0,1-.16,4.05l-.07.15a8.72,8.72,0,0,0-1.55-4c.12.52.27,1,.35,1.5A7.66,7.66,0,0,1,70,97.56c-.12.25-.27.47-.41.71l-.53.9-.06,0,.37-1.09.07-.83a6.7,6.7,0,0,0-.29-2.44s0,0-.07-.07a9.07,9.07,0,0,1-2.38,6.22H80a3.91,3.91,0,0,0,3.64-2.48L99.22,58.92c0-.11.08-.22.11-.33l2-5ZM59.71,79.3a1.68,1.68,0,0,1,1.95.74,3.88,3.88,0,0,0-.5.29A.9.9,0,0,1,59.77,80C59.49,79.4,59.71,79.3,59.71,79.3Zm9.84.67a.9.9,0,0,1-1.38.36,3.88,3.88,0,0,0-.5-.29,1.68,1.68,0,0,1,1.95-.74S69.83,79.4,69.55,80Z"/></g></g></svg>